<svg id="Layer_1" data-name="Layer 1" xmlns="http://www.w3.org/2000/svg" viewBox="0 0 339.51 342.22"><defs><style>.cls-1{fill:#fff;}.cls-2{fill:#ec1f27;}.cls-3,.cls-4{fill:none;stroke:#ec1f27;stroke-miterlimit:10;}.cls-3{stroke-width:1.5px;}.cls-4{stroke-width:3.54px;}</style></defs><circle class="cls-1" cx="169.76" cy="169.76" r="169.76"/><path class="cls-2" d="M170.07,5.25A164.69,164.69,0,0,1,286.53,286.39,164.7,164.7,0,0,1,53.61,53.48,163.65,163.65,0,0,1,170.07,5.25m0-2A166.69,166.69,0,1,0,336.76,169.94,166.69,166.69,0,0,0,170.07,3.25Z"/><line class="cls-3" x1="316.97" y1="119.52" x2="211.63" y2="186.95"/><line class="cls-3" x1="199.67" y1="200.3" x2="199.67" y2="323.59"/><line class="cls-3" x1="25.7" y1="127.08" x2="130.64" y2="187.33"/><line class="cls-3" x1="141.14" y1="206.18" x2="141.14" y2="321.09"/><line class="cls-3" x1="51.04" y1="83.24" x2="110.09" y2="116.36"/><line class="cls-3" x1="238.65" y1="111.57" x2="283.34" y2="84.04"/><line class="cls-4" x1="239.96" y1="115.91" x2="287.44" y2="86.79"/><line class="cls-4" x1="112.29" y1="122.7" x2="44.06" y2="84"/><line class="cls-4" x1="145.8" y1="211.67" x2="145.52" y2="324.99"/><line class="cls-4" x1="195.28" y1="201.3" x2="195.35" y2="322.59"/><line class="cls-4" x1="208.84" y1="183.34" x2="307.39" y2="121.1"/><line class="cls-4" x1="133.03" y1="184.14" x2="28.1" y2="123.1"/><g id="Mono_Logo_-_DSA_Black" data-name="Mono Logo - DSA Black"><line class="cls-2" x1="240.18" y1="115.73" x2="173.59" y2="118.71"/><line class="cls-2" x1="184.76" y1="117.7" x2="194.02" y2="97.81"/><line class="cls-2" x1="194.02" y1="117.8" x2="209.57" y2="98.25"/><line class="cls-2" x1="209.57" y1="117.1" x2="220.32" y2="101.51"/><line class="cls-2" x1="222.04" y1="116.54" x2="228.11" y2="105.53"/><line class="cls-2" x1="222.04" y1="116.54" x2="229.47" y2="126.52"/><line class="cls-2" x1="209.57" y1="117.1" x2="219.32" y2="133.02"/><line class="cls-2" x1="194.02" y1="117.8" x2="201.1" y2="130.45"/><line class="cls-2" x1="184.76" y1="117.7" x2="189.3" y2="132.11"/><line class="cls-2" x1="155.18" y1="118.71" x2="148.11" y2="99.8"/><line class="cls-2" x1="143" y1="118.71" x2="138.94" y2="99.56"/><line class="cls-2" x1="131.36" y1="118.71" x2="121.99" y2="106.57"/><line class="cls-2" x1="131.36" y1="118.71" x2="121.99" y2="132.35"/><line class="cls-2" x1="143" y1="118.71" x2="132.66" y2="134.53"/><line class="cls-2" x1="155.18" y1="118.71" x2="147.22" y2="132.35"/><line class="cls-2" x1="187.66" y1="99.33" x2="188.88" y2="99.61"/><path class="cls-2" d="M241.89,116.31a2,2,0,0,0,.1-.64v0s0-.06,0-.09a2,2,0,0,0-.13-.53,2.12,2.12,0,0,0-.12-.2,1.39,1.39,0,0,0-.11-.21,55.07,55.07,0,0,0-28.8-17.53,16.11,16.11,0,0,0,5.5-11.89c0-6.93-4.41-11.56-6.56-13.4a14.38,14.38,0,0,0,1.07-5c.16-4.95-2.21-9.9-6.52-13.58a21.12,21.12,0,0,0-10.63-4.52s0-.08,0-.12a22.41,22.41,0,0,0-19.74-11.09c-10.09,0-15.58,4.82-17.89,7.55a10.91,10.91,0,0,0-4.88-2.16c-4.87-.85-10,1.44-13.83,6.11a24,24,0,0,0-5,17.94c-5.1,3.26-9.85,8.63-9.85,17.31a26.63,26.63,0,0,0,5.28,15.85c-12.71,5.26-21,16.93-21.47,17.56a1.74,1.74,0,0,0-.14.27.41.41,0,0,1,0,.09,1.9,1.9,0,0,0-.12.62s0,0,0,.06,0,.05,0,.07a1.84,1.84,0,0,0,.12.61v0h0a34.53,34.53,0,0,0,16.23,16.28,15.72,15.72,0,0,0,6,2c6.43.1,11.45-3.51,17-3.51,11.43,0,17.17,5.84,17.26,5.93l3.8,3.81a1.8,1.8,0,0,0,1.29.53,1.78,1.78,0,0,0,1.28-.53,1.8,1.8,0,0,0,0-2.56l-.86-.86V112.68a.89.89,0,0,1,1.78,0v26.46a1.82,1.82,0,0,0,3.63,0v-7.45a23,23,0,0,0,4.9,3.95,1.81,1.81,0,1,0,1.88-3.1,17.54,17.54,0,0,1-6.78-7.08v-5l8.21-.37,4,12.57a1.81,1.81,0,0,0,1.73,1.27,2.15,2.15,0,0,0,.55-.08,1.82,1.82,0,0,0,1.18-2.28l-3.67-11.65,5.63-.25,6.53,11.67a1.8,1.8,0,0,0,1.59.93A1.75,1.75,0,0,0,202,132a1.82,1.82,0,0,0,.7-2.47l-5.64-10.08,11.53-.52,8.13,13.27c-.46.21-.91.42-1.39.62a1.81,1.81,0,0,0,.7,3.49,1.75,1.75,0,0,0,.7-.14c1.19-.5,2.33-1,3.45-1.6l.1,0h0a63.2,63.2,0,0,0,21.38-17.77,2.44,2.44,0,0,0,.14-.28Zm-54.46,0,7.86-16.9a17.49,17.49,0,0,1,3.34-.36,54.15,54.15,0,0,1,7.59.53L193.12,116ZM158.34,54.75a11.32,11.32,0,0,1,1.43-1,14.22,14.22,0,0,0,8.89,5.38,12.29,12.29,0,0,0,1.82.14,17.59,17.59,0,0,0,9.83-3.51,28.64,28.64,0,0,1-6.17,8.16,7.17,7.17,0,0,1-5.4,2.14c-5-.18-10.16-4.87-11.81-6.52.11-.92.23-1.86.39-2.81A4.4,4.4,0,0,1,158.34,54.75Zm6-1.5a7.84,7.84,0,0,1,6.95-3.72c2.81,0,4.21,2.21,4.92,4.48a11.53,11.53,0,0,1-7,1.53A9.67,9.67,0,0,1,164.34,53.25Zm-7.71,10.92c2.8,2.34,7.27,5.33,12,5.5a10.76,10.76,0,0,0,8.05-3.14c6.15-5.9,7.95-11,8.47-13.75a8.78,8.78,0,0,1,5,2.32,5.07,5.07,0,0,1,1.18,4.07c-.35,4-5.05,13.28-13.18,17.23-6.26,3-13.07,2.29-20.24-2.22A35.37,35.37,0,0,1,156.63,64.17Zm13.66,17.67a21.32,21.32,0,0,0,9.39-2.18c9-4.39,14.55-14.29,15.17-19.93,3.24,2.65,8.46,8.58,8.46,19.39,0,7.84-2.45,13.52-7.09,16.41l0,0a21.45,21.45,0,0,0-2.7.53.61.61,0,0,0-.13,0,31.83,31.83,0,0,0-4.64,1.6l-.66-.15H188s-.07,0-.11,0-16.46-2-25.38-13.87a27,27,0,0,1-2.65-4.28A24.72,24.72,0,0,0,170.29,81.84Zm40,18.42a53.21,53.21,0,0,1,7.22,2.14l-8.92,12.93-10.66.48Zm10.65,3.56c1.68.76,3.26,1.57,4.72,2.41l-4.72,8.55-7.81.35Zm7.8,4.33a52.06,52.06,0,0,1,7.43,5.95l-11,.49Zm-14.06-23a12.63,12.63,0,0,1-6.74,10.91,61.56,61.56,0,0,0-6.14-.63c2.79-3.18,5.14-8.26,5.14-16.36,0-.33,0-.62,0-.94a17.83,17.83,0,0,0,3-3.15A14.25,14.25,0,0,1,214.68,85.2ZM209.2,66.7a11.09,11.09,0,0,1-2.72,6.83c-2-12.43-10.47-17.65-12.25-18.61a8,8,0,0,0-1.46-2.26,6.44,6.44,0,0,0-.64-.64c3.94.2,8.49,1.13,11.81,4C207.41,59,209.32,62.86,209.2,66.7ZM175.89,41.14a18.94,18.94,0,0,1,15.21,7.2,39.22,39.22,0,0,0-8,.67s-.07,0-.12.05a1.39,1.39,0,0,0-.19.06l-.1.06-.05,0a3,3,0,0,0-.3.19s-.08,0-.11.08A32,32,0,0,1,179.32,52c-1.52-3.89-4.34-6.09-8-6.09a11.36,11.36,0,0,0-9.4,4.52,13.46,13.46,0,0,0-1.39-2.7C162.1,45.69,166.71,41.14,175.89,41.14ZM142.1,51.3c3-3.64,6.85-5.44,10.41-4.83a7.4,7.4,0,0,1,4.29,2.38l0,.06A8.73,8.73,0,0,1,158,50.57,14.56,14.56,0,0,0,155.93,52,7.39,7.39,0,0,0,154,55.16a30.31,30.31,0,0,0-8.18,7.19A36.25,36.25,0,0,0,137.73,65,20.32,20.32,0,0,1,142.1,51.3ZM128,84.26c0-6.45,3.13-11.49,9.3-15a29.75,29.75,0,0,1,5.61-2.43A26.18,26.18,0,0,0,141,71.7c-2.17,7.86-.57,16.6,4.73,26-1.24-.1-2.51-.16-3.85-.16a30.75,30.75,0,0,0-8.62,1.26A23.31,23.31,0,0,1,128,84.26Zm31.24,48.47a31.34,31.34,0,0,0-9-2l5.92-10.16h10.14v4.94a17.32,17.32,0,0,1-7.08,7.26Zm-22.86-.62L144,120.52h8l-5.86,10A44.89,44.89,0,0,0,136.41,132.11Zm-6.82,2-.49-.22a33.6,33.6,0,0,1-4.51-2.1l7.72-11.25h7.34l-8.5,13a.42.42,0,0,0,0,.1Zm7.92-32.51,3.25,15.32h-8.51L124.59,107A34.25,34.25,0,0,1,137.51,101.58Zm9.28-.11,5.77,15.43h-8.09l-3.33-15.68.76,0A44.09,44.09,0,0,1,146.79,101.47Zm19.57,11.21v4.22h-9.92l-5.52-14.75c9.41,2.08,14.18,7,15.44,8.46Zm-44.71-3.59,6,7.81h-14.2A58.29,58.29,0,0,1,121.65,109.09Zm-8.92,11.43h15.18l-6.39,9.32A32.51,32.51,0,0,1,112.73,120.52Zm50.34,14a23.09,23.09,0,0,0,3.29-2.88v5.21A22.45,22.45,0,0,0,163.07,134.57Zm7.81-26.41a4.68,4.68,0,0,0-1.59.3c-1.41-1.72-7.25-7.94-19-10.12-5.92-9.48-7.88-18.1-5.81-25.63a24.61,24.61,0,0,1,8.71-12.61,40.77,40.77,0,0,0,1.29,15.51,2.45,2.45,0,0,0,.09.32,31.76,31.76,0,0,0,5,9.94c7.12,9.44,18,13.15,23.86,14.52a67.82,67.82,0,0,0-10.94,8.09A4.57,4.57,0,0,0,170.88,108.16Zm4.52,4.52v-1.9c1.89-1.68,8.27-7.06,15.2-9.92l-7.26,15.6-7.94.35Zm37.32,6.1,8.44-.38,5.78,7.77a57.07,57.07,0,0,1-7,4.45Zm17.06,5.13-4.24-5.71,10.64-.47A62.83,62.83,0,0,1,229.78,123.91Z"/><path class="cls-2" d="M205,175.45l-.49-.49-23.78-23.77a1.81,1.81,0,0,0-2.57,2.56l23.78,23.78.52.51c1.87,1.82,6.82,6.67,6.84,10.32a3,3,0,0,1-1,2.3,4.43,4.43,0,0,1-3.18,1.43c-2.5,0-4.85-2.17-5.35-2.66-1.05-1.09-2.11-2-2.93-2.75-.36-.32-.65-.58-.83-.76l-7.84-7.84-2.57,2.56,7.84,7.85c.22.22.57.53,1,.91,1.69,1.49,5.65,5,5.73,7.63a2.29,2.29,0,0,1-.77,1.75,3.36,3.36,0,0,1-2.61,1.18c-1.87-.08-3.76-1.88-4.33-2.57h0a19.36,19.36,0,0,0-1.76-2l-9.43-9.44-2.56,2.56,9.43,9.44a9.71,9.71,0,0,1,2.77,4.16,3.3,3.3,0,0,1-1.12,3.33c-1.79,1.78-4.45.49-5.36,0a9.82,9.82,0,0,0-1.59-2.08c-2.19-2.2-7.81-8.52-7.87-8.59a1.81,1.81,0,1,0-2.71,2.41c.23.26,5.75,6.47,8,8.74a6.09,6.09,0,0,1,1.74,3.22,3.36,3.36,0,0,1-1,3.06,1.86,1.86,0,0,1-1.31.52c-1.22,0-4.09-.88-9.59-6.55a1.81,1.81,0,0,0-2.6,2.52c5,5.13,8.94,7.63,12.16,7.66h.05a5.3,5.3,0,0,0,3.85-1.59,7,7,0,0,0,2.13-5,8.86,8.86,0,0,0,1.87.22,6.57,6.57,0,0,0,4.79-2,7.14,7.14,0,0,0,2.27-4.79,7.58,7.58,0,0,0,2,.41h.33a7.09,7.09,0,0,0,5-2.25,5.91,5.91,0,0,0,1.83-4.43,7,7,0,0,0-.19-1.36,7,7,0,0,0,1.46.16h.11a7.9,7.9,0,0,0,5.7-2.49,6.66,6.66,0,0,0,2-4.89C212.86,183.18,207.32,177.76,205,175.45Z"/><path class="cls-2" d="M167.33,196.66a6.71,6.71,0,0,0-1.65.24,10.15,10.15,0,0,0,1.11-4.27,6.66,6.66,0,0,0-2-4.86,5.5,5.5,0,0,0-4-1.68,7.6,7.6,0,0,0-2.9.64,6.26,6.26,0,0,0-2.15-4.45c-2.89-2.68-6.23-1.8-9.12,0,0-.16,0-.31,0-.47a5.13,5.13,0,0,0-1.6-3.74,4.63,4.63,0,0,0-3.25-1.34c-3.06,0-5.92,2.88-8.21,5.19l-.46.46a35.53,35.53,0,0,0-5.15,6.38c-2.74,4.61-1.66,7.24-.26,8.64a5,5,0,0,0,3.54,1.52,5.62,5.62,0,0,0,1.8-.34c-.65,2.34-.45,4.57,1.32,6.33a6.41,6.41,0,0,0,4.66,2,7.3,7.3,0,0,0,2-.3,5.93,5.93,0,0,0,1.64,5.25,5.8,5.8,0,0,0,4.21,1.81h0a9.6,9.6,0,0,0,5.31-2,5.63,5.63,0,0,0,1.14,5.1,4.43,4.43,0,0,0,3.45,1.53h0c5.32,0,12.59-8.13,14.7-13.41,1.49-3.71.54-5.7-.52-6.71A5.25,5.25,0,0,0,167.33,196.66Zm-37-1.85c-.92-.92.12-3,.82-4.22a32.28,32.28,0,0,1,4.6-5.67l.46-.46c1.53-1.54,4.09-4.12,5.64-4.12a1,1,0,0,1,.75.34,1.47,1.47,0,0,1,.47,1.15c0,2.24-2.68,6-5.38,8.65l-.64.66c-1.41,1.44-4,4.13-5.74,4.13A1.3,1.3,0,0,1,130.29,194.81Zm6.66,7.51c-2.11-2.11,1.84-8,6.69-12.81s7.82-6.25,9.65-4.57c.68.64,2.09,1.95-.59,5.33-1,.89-2,1.84-2.94,2.8a44,44,0,0,0-6.71,8.35C141.53,202.7,138.92,204.29,137,202.32Zm8.34,6.93c-2.27-2.27,1.9-8.47,7-13.61.77-.77,1.79-1.79,2.9-2.76,0,0,.1-.07.15-.12v0c1.83-1.59,3.86-3,5.42-3a1.85,1.85,0,0,1,1.39.61,3.1,3.1,0,0,1,1,2.29c0,3.55-4.93,8.42-7,10.51l-.51.5-.83.85c-2,2.07-5.39,5.53-7.85,5.53A2.27,2.27,0,0,1,145.29,209.25Zm22.89-5.75c-2,4.89-8.32,11.13-11.34,11.13a.82.82,0,0,1-.71-.28c-1.39-1.6.93-6,5.64-10.7,2.11-2.11,4.19-3.37,5.56-3.37a1.61,1.61,0,0,1,1.18.48C168.78,201,168.78,202,168.18,203.5Z"/><path class="cls-2" d="M157,161.81c0-7.91,12.43-16.93,18.4-21.26,1.3-.94,2.32-1.68,3-2.25,4.1-3.39,12.72-5.42,23.06-5.42,8,0,8.57.88,13.18,3.18,1.59.8,5.18-.79,3.59-1.59-5.1-2.55-7.79-5.21-16.77-5.21-11.32,0-20.57,2.27-25.37,6.25-.59.49-1.62,1.24-2.82,2.1-6.93,5-19.82,14.39-19.89,24.12-.09,1-.68,9.89,3.33,14.28a7.55,7.55,0,0,0,5.79,2.5,6.48,6.48,0,0,0,4.91-1.92c2.61-2.74,2.37-7.6,2.18-11.51a19.86,19.86,0,0,1,0-4.05c2.12-2.72,6.7-6.75,9.81-6.75a1.81,1.81,0,0,0,0-3.62c-5.2,0-10.91,5.88-12.67,8.14-1,1.32-.92,3.48-.78,6.46s.35,7.21-1.19,8.83a2.84,2.84,0,0,1-2.28.79,4,4,0,0,1-3.11-1.32c-2.56-2.8-2.6-9.31-2.39-11.59Z"/></g><path class="cls-2" d="M169.76,31.61A137.95,137.95,0,0,1,267.3,267.1,137.94,137.94,0,1,1,72.22,72a137,137,0,0,1,97.54-40.41m0-23.14A161.09,161.09,0,1,0,330.84,169.56,161.09,161.09,0,0,0,169.76,8.47Z"/><path class="cls-1" d="M105.62,309a2.3,2.3,0,0,1-.41-1.07,2.11,2.11,0,0,1,.18-1.16,2.07,2.07,0,0,1,.74-.89,2.36,2.36,0,0,1,1.09-.4,2,2,0,0,1,1.15.18,2.13,2.13,0,0,1,.91.75,2.41,2.41,0,0,1,.43,1.09,2.18,2.18,0,0,1-.92,2,2.31,2.31,0,0,1-1.1.41,2.23,2.23,0,0,1-1.16-.2A2.21,2.21,0,0,1,105.62,309Z"/><path class="cls-1" d="M125,319.35l6.79,1.92-.47,1.66-8.75-2.47,3.91-13.83,8.64,2.44-.47,1.67L128,308.85l-1.21,4.31,5.84,1.65-.67,1.56-5.63-1.59Z"/><path class="cls-1" d="M136.66,323.94a7.63,7.63,0,0,1-2-1.62l1.23-1.26a6.11,6.11,0,0,0,1.78,1.39,7.26,7.26,0,0,0,2,.74,4.26,4.26,0,0,0,2.49-.11,2.27,2.27,0,0,0,1.07-2.73,2.7,2.7,0,0,0-.81-1,14.2,14.2,0,0,0-1.75-1.16l-.34-.2a14,14,0,0,1-2-1.38,3.92,3.92,0,0,1-1.14-1.49,3.37,3.37,0,0,1-.15-2,3.26,3.26,0,0,1,1.06-1.93,4,4,0,0,1,2-.91,6.52,6.52,0,0,1,2.41,0,9.35,9.35,0,0,1,2.41.8,8.29,8.29,0,0,1,2.07,1.51l-1.19,1.26a7.87,7.87,0,0,0-1.68-1.24,7.44,7.44,0,0,0-2-.66,3.6,3.6,0,0,0-2,.12,1.65,1.65,0,0,0-1.05,1.33,1.63,1.63,0,0,0,.08,1,2.37,2.37,0,0,0,.72.91,11.61,11.61,0,0,0,1.59,1.07l.35.21a19,19,0,0,1,2.15,1.39,4.42,4.42,0,0,1,1.25,1.57,3.54,3.54,0,0,1,.22,2.29,3.89,3.89,0,0,1-1.06,2.11,4,4,0,0,1-2.07,1,7.63,7.63,0,0,1-2.88-.07A9.09,9.09,0,0,1,136.66,323.94Z"/><path class="cls-1" d="M160.57,313l-.18,1.77-4.94-.51-1.29,12.53-2-.21L153.42,314l-5-.51.18-1.76Z"/><path class="cls-1" d="M177.51,325.6l0,1.73-9.37.23,0-1,.78-.82c1.72-1.82,3-3.17,3.74-4.06a16.07,16.07,0,0,0,1.81-2.47,4,4,0,0,0,.63-2.1,2.59,2.59,0,0,0-.69-1.88,2.46,2.46,0,0,0-1.84-.61,4.7,4.7,0,0,0-1.89.47,7.58,7.58,0,0,0-1.73,1.13L167.85,315a7.34,7.34,0,0,1,2.23-1.56,6.83,6.83,0,0,1,2.7-.62,4.87,4.87,0,0,1,2.22.43,3.78,3.78,0,0,1,1.59,1.37,4,4,0,0,1,.61,2.12,5.61,5.61,0,0,1-.55,2.58,13.14,13.14,0,0,1-1.78,2.7c-.79.95-1.92,2.19-3.41,3.74Z"/><path class="cls-1" d="M182.35,325.3a9.76,9.76,0,0,1-1.82-5.39,10.42,10.42,0,0,1,.37-4.46,5.1,5.1,0,0,1,1.77-2.55,5.24,5.24,0,0,1,2.56-.94,4.42,4.42,0,0,1,2.86.61,5.4,5.4,0,0,1,2,2.37,12.27,12.27,0,0,1,1,4,10.58,10.58,0,0,1-.35,4.47,4.86,4.86,0,0,1-1.73,2.5,5.52,5.52,0,0,1-2.61.91A4.38,4.38,0,0,1,182.35,325.3Zm5.7-.93a3.61,3.61,0,0,0,.88-2,12.67,12.67,0,0,0,0-3.3,9.22,9.22,0,0,0-1.2-4.25,2.54,2.54,0,0,0-2.46-1.22,2.64,2.64,0,0,0-2.29,1.65,9,9,0,0,0-.41,4.42,9.14,9.14,0,0,0,1.21,4.26,2.57,2.57,0,0,0,2.49,1.16A2.7,2.7,0,0,0,188.05,324.37Z"/><path class="cls-1" d="M203.51,322l.33,1.7-9.2,1.78-.19-1,.63-.93c1.39-2.08,2.4-3.62,3-4.63a15.9,15.9,0,0,0,1.38-2.73,4.08,4.08,0,0,0,.27-2.17,2.63,2.63,0,0,0-1-1.74,2.42,2.42,0,0,0-1.91-.3,4.64,4.64,0,0,0-1.79.78,7.21,7.21,0,0,0-1.52,1.4l-1.31-1.06a7.39,7.39,0,0,1,1.95-1.91,6.79,6.79,0,0,1,2.56-1.06,4.77,4.77,0,0,1,2.26.06,3.69,3.69,0,0,1,1.79,1.09,3.92,3.92,0,0,1,1,2,5.61,5.61,0,0,1-.12,2.63,12.82,12.82,0,0,1-1.3,2.95c-.63,1.07-1.54,2.49-2.75,4.26Z"/><path class="cls-1" d="M213.38,319.42l2.92-.82.48,1.66-8.58,2.43-.47-1.67,3.69-1-2.84-10.05-2.64,2.66-1.12-.95,3.16-3.82,2-.56Z"/><path class="cls-1" d="M231.31,309.89a2.37,2.37,0,0,1-1.08-.4,2.19,2.19,0,0,1-.93-2,2.39,2.39,0,0,1,.42-1.09,2.19,2.19,0,0,1,2.05-.93,2.4,2.4,0,0,1,1.11.4,2.1,2.1,0,0,1,.74.88,2.17,2.17,0,0,1,.18,1.15,2.29,2.29,0,0,1-1.34,1.84A2.19,2.19,0,0,1,231.31,309.89Z"/><path class="cls-1" d="M20.35,208.87q1.11-2.34,4.72-3.39a7.6,7.6,0,0,1,4.14-.18,5.9,5.9,0,0,1,3.06,2,10.19,10.19,0,0,1,1.91,3.78l1.1,3.79-13.8,4-1.2-4.15A8.23,8.23,0,0,1,20.35,208.87Zm10.88-.08a3.79,3.79,0,0,0-2.16-1.49,6.39,6.39,0,0,0-3.4.22,5.7,5.7,0,0,0-3.61,2.41,5.53,5.53,0,0,0-.14,4.27l.66,2.23,10.47-3-.46-1.6A9.76,9.76,0,0,0,31.23,208.79Z"/><path class="cls-1" d="M29.3,198.84,28,191.91l1.71-.32,1.68,8.93-14.12,2.67-1.67-8.82,1.7-.33,1.29,6.82L23,200l-1.13-6,1.69-.09,1.09,5.75Z"/><path class="cls-1" d="M13.67,175.12,28,174l.16,2-11,.87a18.1,18.1,0,0,1,2.06.71l7,2.92.15,2-6.43,3.91-1,.62c-.33.2-.62.36-.86.48l11-.87.15,1.95-14.33,1.13-.18-2.32,6.07-3.73a32.47,32.47,0,0,1,3.73-2.05,15.28,15.28,0,0,1-1.76-.54q-1-.35-2.25-.9l-6.58-2.75Z"/><path class="cls-1" d="M27.42,168a5.91,5.91,0,0,1-2.72,2.17,9.47,9.47,0,0,1-3.95.61,8.43,8.43,0,0,1-4.11-1.1,5.94,5.94,0,0,1-2.36-2.57,7.43,7.43,0,0,1-.66-3.47A6.79,6.79,0,0,1,14.71,160a5.89,5.89,0,0,1,2.71-2.17,9.66,9.66,0,0,1,3.95-.61,8.37,8.37,0,0,1,4.11,1.1,5.91,5.91,0,0,1,2.36,2.58,7.52,7.52,0,0,1,.67,3.46A6.76,6.76,0,0,1,27.42,168Zm-1.26-6.34A4.32,4.32,0,0,0,24.24,160a7.81,7.81,0,0,0-2.93-.64,8.45,8.45,0,0,0-3,.38,4.38,4.38,0,0,0-2.09,1.44,4.29,4.29,0,0,0-.83,2.52,4.48,4.48,0,0,0,.62,2.65A4.32,4.32,0,0,0,17.89,168a7.57,7.57,0,0,0,2.92.64,8.51,8.51,0,0,0,3.05-.38A4.43,4.43,0,0,0,26,166.8a4.29,4.29,0,0,0,.83-2.52A4.56,4.56,0,0,0,26.16,161.63Z"/><path class="cls-1" d="M28.55,152.33a5.51,5.51,0,0,1-2.86,1.82,9.8,9.8,0,0,1-4,.17,8.88,8.88,0,0,1-4.13-1.51,5.77,5.77,0,0,1-2.08-2.72,7.19,7.19,0,0,1-.3-3.34,8.64,8.64,0,0,1,1.95-4.45l1.41,1.1A6.78,6.78,0,0,0,17,146.91a4,4,0,0,0,1,3.58,6.8,6.8,0,0,0,3.91,1.66,6.84,6.84,0,0,0,4.33-.55,4,4,0,0,0,2-3.15,7.1,7.1,0,0,0,0-2.06,9,9,0,0,0-.56-1.91l1.59-.61a11.68,11.68,0,0,1,.71,2.42,8.35,8.35,0,0,1,0,2.5A7,7,0,0,1,28.55,152.33Z"/><path class="cls-1" d="M33.19,131.31l.13,0-.54,2.29-6.42,2.74-.49,2.07,5.47,1.29-.47,2-14-3.31L18,133.86a6.91,6.91,0,0,1,1.17-2.65A3.85,3.85,0,0,1,21,129.85a4,4,0,0,1,2.29-.06,4.47,4.47,0,0,1,1.75.81,4.11,4.11,0,0,1,1.19,1.47,4.91,4.91,0,0,1,.45,2.09Zm-9,6.75.54-2.27a3.87,3.87,0,0,0-.12-2.61,2.5,2.5,0,0,0-1.78-1.3,2.36,2.36,0,0,0-2.06.32,3.5,3.5,0,0,0-1.18,2.1l-.6,2.53Z"/><path class="cls-1" d="M22.52,118.27l15.21-.51.13,0-.69,2-4.37.1-2,5.79,3.4,2.73-.66,1.93-.13,0-11.73-9.71Zm6.91,6.3L31,120l-7.08.15Z"/><path class="cls-1" d="M29.11,102.1l1.63.71-2,4.55,11.55,5-.82,1.87-11.54-5-2,4.57-1.62-.7Z"/><path class="cls-1" d="M43.53,105.63,30.77,99l.94-1.81,12.76,6.62Z"/><path class="cls-1" d="M46.85,98.18a5.49,5.49,0,0,1-3.35.55,9.77,9.77,0,0,1-3.73-1.42,8.9,8.9,0,0,1-3.19-3A5.77,5.77,0,0,1,35.75,91a7,7,0,0,1,1-3.18,8.61,8.61,0,0,1,3.54-3.32L41.2,86a6.84,6.84,0,0,0-2.85,2.6,3.92,3.92,0,0,0-.48,3.69,6.84,6.84,0,0,0,2.94,3.07A6.9,6.9,0,0,0,45,96.6a4,4,0,0,0,3.07-2.11,6.65,6.65,0,0,0,.81-1.89,9,9,0,0,0,.24-2l1.7.07a12,12,0,0,1-.3,2.5,8.56,8.56,0,0,1-1,2.3A7,7,0,0,1,46.85,98.18Z"/><path class="cls-1" d="M57.13,83.7a7.5,7.5,0,0,1-2.39,1l-.53-1.67a6.27,6.27,0,0,0,2.06-.93,6.73,6.73,0,0,0,1.59-1.43,4.19,4.19,0,0,0,1.07-2.26,2,2,0,0,0-.84-1.74A2,2,0,0,0,57,76.23a2.72,2.72,0,0,0-1.25.26,13.62,13.62,0,0,0-1.84,1l-.34.21a15.43,15.43,0,0,1-2.17,1.16,4.11,4.11,0,0,1-1.85.31,3.4,3.4,0,0,1-1.85-.81,3.31,3.31,0,0,1-1.22-1.84,4.11,4.11,0,0,1,.12-2.19,6.64,6.64,0,0,1,1.16-2.11,9.2,9.2,0,0,1,1.83-1.76,8.36,8.36,0,0,1,2.3-1.13L52.47,71a8,8,0,0,0-1.88.91,7,7,0,0,0-1.49,1.42,3.6,3.6,0,0,0-.84,1.83,1.83,1.83,0,0,0,1.58,1.93A2.38,2.38,0,0,0,51,76.85a11.62,11.62,0,0,0,1.69-.9l.34-.21a17.83,17.83,0,0,1,2.24-1.25,4.45,4.45,0,0,1,2-.38,3.6,3.6,0,0,1,2.13.88,3.68,3.68,0,0,1,1.31,4.23,7.71,7.71,0,0,1-1.4,2.52A9.3,9.3,0,0,1,57.13,83.7Z"/><path class="cls-1" d="M65.26,73.23A5.87,5.87,0,0,1,61.8,73a9.13,9.13,0,0,1-3.35-2.19,8.3,8.3,0,0,1-2.32-3.56,6,6,0,0,1,0-3.5,7.35,7.35,0,0,1,1.83-3,6.79,6.79,0,0,1,3.23-2,5.87,5.87,0,0,1,3.46.21A9.48,9.48,0,0,1,68,61.19a8.52,8.52,0,0,1,2.32,3.56,6,6,0,0,1,0,3.5,7.39,7.39,0,0,1-1.83,3A6.69,6.69,0,0,1,65.26,73.23Zm3.31-5.55a4.34,4.34,0,0,0-.32-2.52,7.9,7.9,0,0,0-1.75-2.43A8.46,8.46,0,0,0,64,61a4.27,4.27,0,0,0-2.51-.33A4.21,4.21,0,0,0,59.17,62a4.5,4.5,0,0,0-1.32,2.39,4.31,4.31,0,0,0,.32,2.51,7.68,7.68,0,0,0,1.75,2.43,8.5,8.5,0,0,0,2.52,1.76,4.43,4.43,0,0,0,2.51.33,4.3,4.3,0,0,0,2.3-1.32A4.5,4.5,0,0,0,68.57,67.68Z"/><path class="cls-1" d="M76.56,62.37a5.5,5.5,0,0,1-3.34-.55,9.69,9.69,0,0,1-3.08-2.55,8.87,8.87,0,0,1-2-3.87A5.77,5.77,0,0,1,68.36,52a7,7,0,0,1,2-2.68A9,9,0,0,1,72.49,48a8.55,8.55,0,0,1,2.3-.65l.32,1.76a6.78,6.78,0,0,0-3.53,1.54A3.92,3.92,0,0,0,69.94,54a6.77,6.77,0,0,0,1.79,3.84,6.88,6.88,0,0,0,3.6,2.49,4,4,0,0,0,3.58-1,7,7,0,0,0,1.38-1.53,9.09,9.09,0,0,0,.86-1.8l1.58.61a11,11,0,0,1-1.08,2.28A8.23,8.23,0,0,1,80,60.69,6.93,6.93,0,0,1,76.56,62.37Z"/><path class="cls-1" d="M85.51,56,77,44.43l1.65-1.2,8.48,11.6Z"/><path class="cls-1" d="M88.13,36.91l12.14,9.2.07.11-1.8,1.13-3.46-2.68L89.9,47.92l.92,4.27-1.73,1.09L89,53.16,86,38.23Zm1.4,9.26,4.13-2.59-5.59-4.35Z"/><path class="cls-1" d="M103.53,42.63l6.29-3.18.8,1.58-8.11,4.11L96,32.32l1.82-.92Z"/><path class="cls-1" d="M113,40.06l-5.68-13.2,1.87-.8,5.68,13.2Z"/><path class="cls-1" d="M119.54,37.18a7.5,7.5,0,0,1-2.58-.37l.43-1.71a6,6,0,0,0,2.24.3,7.2,7.2,0,0,0,2.11-.38,4.39,4.39,0,0,0,2.1-1.35,2,2,0,0,0,.19-1.93,2,2,0,0,0-.66-1,2.67,2.67,0,0,0-1.19-.44,15.92,15.92,0,0,0-2.1-.11h-.4a16.6,16.6,0,0,1-2.45-.15,4.08,4.08,0,0,1-1.74-.72,3.4,3.4,0,0,1-1.15-1.66,3.21,3.21,0,0,1-.06-2.2,4,4,0,0,1,1.25-1.8,6.66,6.66,0,0,1,2.1-1.19,9.66,9.66,0,0,1,2.48-.53,8.37,8.37,0,0,1,2.55.25l-.39,1.69a7.77,7.77,0,0,0-2.08-.21,7.09,7.09,0,0,0-2,.42,3.59,3.59,0,0,0-1.68,1.11,1.65,1.65,0,0,0-.22,1.68,1.58,1.58,0,0,0,.55.79,2.35,2.35,0,0,0,1.09.42,12,12,0,0,0,1.91.12h.4a18.32,18.32,0,0,1,2.56.12,4.32,4.32,0,0,1,1.88.72A3.55,3.55,0,0,1,126,30.94a3.88,3.88,0,0,1,.15,2.36,4,4,0,0,1-1.26,1.93,7.75,7.75,0,0,1-2.52,1.4A9.21,9.21,0,0,1,119.54,37.18Z"/><path class="cls-1" d="M136.7,17.23l.44,1.72-4.81,1.24,3.14,12.2-2,.51-3.15-12.2-4.83,1.24-.44-1.72Z"/><path class="cls-1" d="M150.36,28.85a5.53,5.53,0,0,1-2.5-2.29,9.87,9.87,0,0,1-1.18-3.82,8.8,8.8,0,0,1,.4-4.37,5.84,5.84,0,0,1,2.1-2.71,7,7,0,0,1,3.14-1.14,8.8,8.8,0,0,1,2.52,0,9,9,0,0,1,2.28.71l-.69,1.64a6.83,6.83,0,0,0-3.81-.63,3.92,3.92,0,0,0-3.2,1.9,7,7,0,0,0-.6,4.21,6.93,6.93,0,0,0,1.65,4A4,4,0,0,0,154,27.54a6.82,6.82,0,0,0,2-.53,9.1,9.1,0,0,0,1.71-1l1,1.38a11.07,11.07,0,0,1-2.15,1.31,8.42,8.42,0,0,1-2.42.65A7.06,7.06,0,0,1,150.36,28.85Z"/><path class="cls-1" d="M167.25,13.83,173,27.93v.13l-2.12.05-1.61-4.06-6.12.15-1.38,4.14-2.05.05v-.14l5.05-14.36Zm-3.52,8.67,4.88-.12L166,15.79Z"/><path class="cls-1" d="M177.14,27.81a4.82,4.82,0,0,1-1.81-2.28,7.1,7.1,0,0,1-.41-3.13l.63-8.6,2,.15-.6,8.16c-.23,3.11,1,4.76,3.68,5a3.55,3.55,0,0,0,3.06-1,5.36,5.36,0,0,0,1.16-3.29l.61-8.29,2,.15-.63,8.54a6.74,6.74,0,0,1-1,3.4,4.79,4.79,0,0,1-2.3,1.82,7.66,7.66,0,0,1-3.16.39A6.58,6.58,0,0,1,177.14,27.81Z"/><path class="cls-1" d="M192.13,29.24a5.49,5.49,0,0,1-1.73-2.92,9.66,9.66,0,0,1,0-4A9,9,0,0,1,192,18.26a5.81,5.81,0,0,1,2.79-2,7,7,0,0,1,3.34-.19,8.65,8.65,0,0,1,2.4.75,9,9,0,0,1,2,1.34l-1.14,1.37a6.81,6.81,0,0,0-3.46-1.7,4,4,0,0,0-3.62.9,6.9,6.9,0,0,0-1.78,3.86,6.86,6.86,0,0,0,.41,4.35A4,4,0,0,0,196,29a6.59,6.59,0,0,0,2.06.07,9,9,0,0,0,1.93-.5l.56,1.61a11.56,11.56,0,0,1-2.44.63,8.16,8.16,0,0,1-2.5-.07A7.07,7.07,0,0,1,192.13,29.24Z"/><path class="cls-1" d="M205,32a4.8,4.8,0,0,1-1.33-2.59,7.13,7.13,0,0,1,.21-3.15l2.32-8.31,2,.54-2.19,7.89c-.84,3,0,4.87,2.63,5.59a3.56,3.56,0,0,0,3.19-.34,5.43,5.43,0,0,0,1.79-3l2.23-8,2,.54-2.29,8.25a6.86,6.86,0,0,1-1.71,3.13,4.75,4.75,0,0,1-2.61,1.33,7.59,7.59,0,0,1-3.17-.24A6.47,6.47,0,0,1,205,32Z"/><path class="cls-1" d="M218.29,36.43a7.66,7.66,0,0,1-1.71-2l1.43-1a6.34,6.34,0,0,0,1.5,1.69,7.46,7.46,0,0,0,1.85,1.09,4.29,4.29,0,0,0,2.48.33,2,2,0,0,0,1.4-1.33,1.93,1.93,0,0,0,.13-1.16,2.69,2.69,0,0,0-.61-1.11,14.88,14.88,0,0,0-1.52-1.45l-.3-.27a13.85,13.85,0,0,1-1.76-1.71,3.91,3.91,0,0,1-.85-1.67,3.37,3.37,0,0,1,.2-2,3.32,3.32,0,0,1,1.39-1.71,4.12,4.12,0,0,1,2.13-.54,6.56,6.56,0,0,1,2.36.46,9.37,9.37,0,0,1,2.23,1.22,8.2,8.2,0,0,1,1.76,1.85l-1.39,1a8.1,8.1,0,0,0-1.43-1.52,6.91,6.91,0,0,0-1.81-1,3.49,3.49,0,0,0-2-.25,1.85,1.85,0,0,0-1.37,2.08,2.41,2.41,0,0,0,.56,1,11,11,0,0,0,1.37,1.34l.3.26a18.59,18.59,0,0,1,1.86,1.75,4.45,4.45,0,0,1,1,1.78,3.57,3.57,0,0,1-.2,2.29,3.87,3.87,0,0,1-1.42,1.89,4,4,0,0,1-2.22.63,7.52,7.52,0,0,1-2.82-.58A9.13,9.13,0,0,1,218.29,36.43Z"/><path class="cls-1" d="M246.8,45.45a2.28,2.28,0,0,1-.26-1.12,2.12,2.12,0,0,1,1.19-1.89,2.32,2.32,0,0,1,1.14-.25,2.18,2.18,0,0,1,1.9,1.19,2.47,2.47,0,0,1,.28,1.15,2.14,2.14,0,0,1-.33,1.1,2.09,2.09,0,0,1-.86.78,2.22,2.22,0,0,1-2.26-.1A2.2,2.2,0,0,1,246.8,45.45Z"/><path class="cls-1" d="M261.37,60.73a5.53,5.53,0,0,1,0-3.39,9.94,9.94,0,0,1,2-3.44,8.85,8.85,0,0,1,3.51-2.64,5.72,5.72,0,0,1,3.42-.26,7,7,0,0,1,3,1.55A8.86,8.86,0,0,1,275,54.44a9.15,9.15,0,0,1,1,2.17l-1.69.59A6.84,6.84,0,0,0,272.2,54a3.94,3.94,0,0,0-3.56-1.09,8.25,8.25,0,0,0-5.4,6.32,4,4,0,0,0,1.56,3.38,6.7,6.7,0,0,0,1.73,1.12,9.06,9.06,0,0,0,1.91.57l-.36,1.66a11.55,11.55,0,0,1-2.41-.72,8.12,8.12,0,0,1-2.1-1.35A6.92,6.92,0,0,1,261.37,60.73Z"/><path class="cls-1" d="M269,68.56l10.12-10.21,1.45,1.44L270.48,70Z"/><path class="cls-1" d="M291,71.21l-1.33,1.17-3.28-3.73L277,77l-1.35-1.53,9.45-8.34-3.3-3.74,1.33-1.17Z"/><path class="cls-1" d="M299.89,83.14l-.11.08L289.67,84l-4.53,3.3-1.2-1.65,4.59-3.34,3.87-9.22.11-.07,1.32,1.8-3.21,7.31,8-.69Z"/><path class="cls-1" d="M294.18,100.14a5.92,5.92,0,0,1,1.27-3.24,9.45,9.45,0,0,1,3.11-2.51,8.44,8.44,0,0,1,4.1-1.12,6,6,0,0,1,3.34,1A7.4,7.4,0,0,1,308.31,97a6.85,6.85,0,0,1,.88,3.68,5.92,5.92,0,0,1-1.27,3.24,9.45,9.45,0,0,1-3.11,2.51,8.42,8.42,0,0,1-4.1,1.11,6,6,0,0,1-3.34-1,7.52,7.52,0,0,1-2.31-2.67A6.8,6.8,0,0,1,294.18,100.14Zm4.28,4.85a4.28,4.28,0,0,0,2.49.46,7.72,7.72,0,0,0,2.85-.91,8.39,8.39,0,0,0,2.44-1.86,4.3,4.3,0,0,0,1.08-2.29,4.2,4.2,0,0,0-.54-2.6,4.45,4.45,0,0,0-1.87-2,4.36,4.36,0,0,0-2.49-.47,7.94,7.94,0,0,0-2.85.92,8.39,8.39,0,0,0-2.44,1.86,4.27,4.27,0,0,0-1.08,2.29,4.21,4.21,0,0,0,.54,2.6A4.56,4.56,0,0,0,298.46,105Z"/><path class="cls-1" d="M314.76,116.07l-2.63-6.42-4.47,1.83,2.3,5.6-1.69.45-2.21-5.39-5.62,2.3-.78-1.88L313,107.1l3.41,8.31Z"/><path class="cls-1" d="M306.9,130.75a5.51,5.51,0,0,1,1.91-2.8,9.85,9.85,0,0,1,3.61-1.71,8.9,8.9,0,0,1,4.38-.22,5.77,5.77,0,0,1,3,1.7,6.92,6.92,0,0,1,1.58,2.95,8.87,8.87,0,0,1,.32,2.49,8.38,8.38,0,0,1-.38,2.37l-1.72-.46a6.86,6.86,0,0,0,.09-3.86,4,4,0,0,0-2.33-2.9,7,7,0,0,0-4.25,0,6.84,6.84,0,0,0-3.77,2.2,4,4,0,0,0-.61,3.68,6.65,6.65,0,0,0,.81,1.89,8.93,8.93,0,0,0,1.26,1.55l-1.23,1.17a11.54,11.54,0,0,1-1.59-2,8.38,8.38,0,0,1-1-2.29A7,7,0,0,1,306.9,130.75Z"/><path class="cls-1" d="M324.71,149l.33,2-14.19,2.28-.33-2,6.38-1-1.26-7.83-6.37,1-.32-2,14.18-2.27.33,2-6.11,1,1.26,7.84Z"/><path class="cls-1" d="M311.12,157.13,325.45,156l.16,2-14.32,1.18Z"/><path class="cls-1" d="M312.28,165.2a5.5,5.5,0,0,1,2.53-2.25,10.09,10.09,0,0,1,3.92-.78,8.86,8.86,0,0,1,4.3.86,5.7,5.7,0,0,1,2.48,2.37,6.94,6.94,0,0,1,.81,3.24,8.54,8.54,0,0,1-1.23,4.7l-1.57-.86a6.84,6.84,0,0,0,1-3.72,3.9,3.9,0,0,0-1.56-3.38,8.28,8.28,0,0,0-8.31.18A4,4,0,0,0,313.2,169a6.7,6.7,0,0,0,.32,2,8.45,8.45,0,0,0,.85,1.81l-1.48.84a10.61,10.61,0,0,1-1.07-2.28,8.23,8.23,0,0,1-.4-2.46A6.93,6.93,0,0,1,312.28,165.2Z"/><path class="cls-1" d="M325.47,183.58l-14.62,4.26h-.13l.17-2.11,4.2-1.18.49-6.1-4-1.81.16-2,.14,0,13.77,6.5Zm-8.26-4.39-.39,4.86,6.83-1.9Z"/><path class="cls-1" d="M316.33,202l-6.9-1.23a13.42,13.42,0,0,1-.48-2.58,10.7,10.7,0,0,1,.17-2.69,7.33,7.33,0,0,1,1.62-3.68,5.62,5.62,0,0,1,3-1.75,9.89,9.89,0,0,1,3.92,0,8.73,8.73,0,0,1,4,1.66,5.85,5.85,0,0,1,2,2.87,7.56,7.56,0,0,1,.17,3.52,9.49,9.49,0,0,1-.78,2.48,8.43,8.43,0,0,1-1.35,2l-1.37-1.14a7.68,7.68,0,0,0,1.07-1.54,6.55,6.55,0,0,0,.65-2,4.36,4.36,0,0,0-.83-3.88,6.57,6.57,0,0,0-3.85-1.86,7,7,0,0,0-4.37.35,4.17,4.17,0,0,0-2.11,3.3,8.79,8.79,0,0,0,0,3.11l4.11.72.64-3.62,1.67.52Z"/><path class="cls-1" d="M307.78,206.07a5.92,5.92,0,0,1,3.16-1.45,9.29,9.29,0,0,1,4,.36,8.31,8.31,0,0,1,3.72,2.05,5.94,5.94,0,0,1,1.68,3.07,7.43,7.43,0,0,1-.19,3.52,6.71,6.71,0,0,1-1.93,3.25,5.81,5.81,0,0,1-3.15,1.45,9.33,9.33,0,0,1-4-.36,8.31,8.31,0,0,1-3.72-2.05,5.88,5.88,0,0,1-1.67-3.07,7.3,7.3,0,0,1,.19-3.52A6.77,6.77,0,0,1,307.78,206.07Zm-.3,6.46a4.3,4.3,0,0,0,1.47,2.06,7.55,7.55,0,0,0,2.68,1.32,8.45,8.45,0,0,0,3.05.37,4.35,4.35,0,0,0,2.37-.9,4.25,4.25,0,0,0,1.42-2.24,4.6,4.6,0,0,0,0-2.72,4.41,4.41,0,0,0-1.47-2.07,7.69,7.69,0,0,0-2.69-1.32,8.65,8.65,0,0,0-3.05-.37,4.35,4.35,0,0,0-2.37.9,4.18,4.18,0,0,0-1.41,2.24A4.47,4.47,0,0,0,307.48,212.53Z"/><polygon class="cls-2" points="66.17 174.12 69.89 187.26 83.36 183.9 73.74 193.78 83.36 203.65 70.1 200.28 66.2 213.27 62.56 200.28 49.05 203.91 58.92 193.78 49.05 183.9 62.56 187.28 66.17 174.12"/><polygon class="cls-2" points="100.4 226.3 104.11 239.44 117.58 236.08 107.97 245.96 117.58 255.84 104.33 252.46 100.43 265.45 96.79 252.46 83.27 256.1 93.15 245.96 83.27 236.08 96.79 239.46 100.4 226.3"/><polygon class="cls-2" points="270.65 180.48 266.93 193.62 253.46 190.26 263.08 200.14 253.46 210.02 266.72 206.64 270.62 219.63 274.26 206.64 287.78 210.28 277.9 200.14 287.78 190.26 274.26 193.64 270.65 180.48"/><polygon class="cls-2" points="236.43 232.66 232.71 245.8 219.24 242.44 228.86 252.32 219.24 262.2 232.5 258.82 236.4 271.82 240.03 258.82 253.55 262.46 243.67 252.32 253.55 242.44 240.03 245.82 236.43 232.66"/></svg>