<svg id="Layer_1" data-name="Layer 1" xmlns="http://www.w3.org/2000/svg" viewBox="0 0 343.96 347.67"><defs><style>.cls-1{fill:#fff;}.cls-2,.cls-3{fill:none;stroke:#000;stroke-miterlimit:10;}.cls-2{stroke-width:1.5px;}.cls-3{stroke-width:3.54px;}</style></defs><circle class="cls-1" cx="169.76" cy="174.09" r="169.76"/><path d="M170.07,9.58A164.7,164.7,0,0,1,286.53,290.73,164.7,164.7,0,0,1,53.61,57.82,163.62,163.62,0,0,1,170.07,9.58m0-2A166.69,166.69,0,1,0,336.76,174.27,166.68,166.68,0,0,0,170.07,7.59Z"/><line class="cls-2" x1="316.97" y1="123.86" x2="211.63" y2="191.29"/><line class="cls-2" x1="199.67" y1="204.63" x2="199.67" y2="327.92"/><line class="cls-2" x1="25.7" y1="131.41" x2="130.64" y2="191.66"/><line class="cls-2" x1="141.14" y1="210.51" x2="141.14" y2="325.42"/><line class="cls-2" x1="51.04" y1="87.58" x2="110.09" y2="120.69"/><line class="cls-2" x1="238.65" y1="115.91" x2="283.34" y2="88.37"/><line class="cls-3" x1="239.96" y1="120.25" x2="287.44" y2="91.12"/><line class="cls-3" x1="112.29" y1="127.03" x2="44.06" y2="88.33"/><line class="cls-3" x1="145.8" y1="216.01" x2="145.52" y2="329.32"/><line class="cls-3" x1="195.28" y1="205.63" x2="195.35" y2="326.93"/><line class="cls-3" x1="208.84" y1="187.68" x2="307.39" y2="125.44"/><line class="cls-3" x1="133.03" y1="188.48" x2="28.1" y2="127.43"/><g id="Mono_Logo_-_DSA_Black" data-name="Mono Logo - DSA Black"><line x1="240.18" y1="120.07" x2="173.59" y2="123.05"/><line x1="184.76" y1="122.04" x2="194.02" y2="102.14"/><line x1="194.02" y1="122.13" x2="209.57" y2="102.59"/><line x1="209.57" y1="121.43" x2="220.32" y2="105.85"/><line x1="222.04" y1="120.88" x2="228.11" y2="109.86"/><line x1="222.04" y1="120.88" x2="229.47" y2="130.86"/><line x1="209.57" y1="121.43" x2="219.32" y2="137.35"/><line x1="194.02" y1="122.13" x2="201.1" y2="134.78"/><line x1="184.76" y1="122.04" x2="189.3" y2="136.44"/><line x1="155.18" y1="123.05" x2="148.11" y2="104.14"/><line x1="143" y1="123.05" x2="138.94" y2="103.89"/><line x1="131.36" y1="123.05" x2="121.99" y2="110.9"/><line x1="131.36" y1="123.05" x2="121.99" y2="136.69"/><line x1="143" y1="123.05" x2="132.66" y2="138.86"/><line x1="155.18" y1="123.05" x2="147.22" y2="136.69"/><line x1="187.66" y1="103.67" x2="188.88" y2="103.95"/><path d="M241.89,120.65a2,2,0,0,0,.1-.64v0s0-.07,0-.1a1.89,1.89,0,0,0-.13-.52,2.25,2.25,0,0,0-.12-.21c0-.06-.06-.14-.11-.21a55.21,55.21,0,0,0-28.8-17.53,16.07,16.07,0,0,0,5.5-11.88c0-6.94-4.41-11.56-6.56-13.41a14.33,14.33,0,0,0,1.07-5c.16-4.94-2.21-9.89-6.52-13.58a21.1,21.1,0,0,0-10.63-4.51s0-.09,0-.13a22.43,22.43,0,0,0-19.74-11.08c-10.09,0-15.58,4.81-17.89,7.54a11,11,0,0,0-4.88-2.16c-4.87-.84-10,1.45-13.83,6.11a24.07,24.07,0,0,0-5,18c-5.1,3.26-9.85,8.62-9.85,17.31a26.58,26.58,0,0,0,5.28,15.84c-12.71,5.27-21,16.93-21.47,17.57a1.38,1.38,0,0,0-.14.27.41.41,0,0,1,0,.09,1.79,1.79,0,0,0-.12.61s0,0,0,.07,0,0,0,.07a1.78,1.78,0,0,0,.12.6v0h0A34.58,34.58,0,0,0,124.26,140a15.89,15.89,0,0,0,6,2c6.43.09,11.45-3.52,17-3.52,11.43,0,17.17,5.85,17.26,5.94l3.8,3.81a1.84,1.84,0,0,0,1.29.53,1.82,1.82,0,0,0,1.28-3.1l-.86-.86V117a.89.89,0,1,1,1.78,0v26.45a1.82,1.82,0,1,0,3.63,0V136a23.36,23.36,0,0,0,4.9,3.95,1.81,1.81,0,0,0,1.88-3.1,17.6,17.6,0,0,1-6.78-7.09v-5l8.21-.37,4,12.58a1.81,1.81,0,0,0,1.73,1.26,1.79,1.79,0,0,0,.55-.08A1.81,1.81,0,0,0,191,135.9l-3.67-11.65L193,124l6.53,11.68a1.82,1.82,0,0,0,1.59.93,1.77,1.77,0,0,0,.88-.24,1.81,1.81,0,0,0,.7-2.46l-5.64-10.09,11.53-.51,8.13,13.27c-.46.21-.91.42-1.39.62a1.81,1.81,0,0,0,.7,3.48,1.75,1.75,0,0,0,.7-.14c1.19-.49,2.33-1,3.45-1.59l.1,0s0,0,0,0a63.35,63.35,0,0,0,21.38-17.76,2.59,2.59,0,0,0,.14-.29C241.83,120.77,241.86,120.72,241.89,120.65Zm-54.46,0,7.86-16.89a16.75,16.75,0,0,1,3.34-.37,55.71,55.71,0,0,1,7.59.53l-13.1,16.48ZM158.34,59.09a11.36,11.36,0,0,1,1.43-1,14.23,14.23,0,0,0,8.89,5.39,12.28,12.28,0,0,0,1.82.13,17.52,17.52,0,0,0,9.83-3.51,28.37,28.37,0,0,1-6.17,8.16,7.13,7.13,0,0,1-5.4,2.14c-5-.18-10.16-4.87-11.81-6.51.11-.93.23-1.86.39-2.82A4.33,4.33,0,0,1,158.34,59.09Zm6-1.5a7.84,7.84,0,0,1,6.95-3.73c2.81,0,4.21,2.22,4.92,4.48a11.46,11.46,0,0,1-7,1.53A9.58,9.58,0,0,1,164.34,57.59ZM156.63,68.5c2.8,2.34,7.27,5.33,12,5.51a10.76,10.76,0,0,0,8.05-3.15c6.15-5.89,7.95-11,8.47-13.75a8.78,8.78,0,0,1,5,2.32,5.08,5.08,0,0,1,1.18,4.07c-.35,4.06-5.05,13.28-13.18,17.23-6.26,3-13.07,2.29-20.24-2.22A35.37,35.37,0,0,1,156.63,68.5Zm13.66,17.68A21.46,21.46,0,0,0,179.68,84c9-4.4,14.55-14.29,15.17-19.93,3.24,2.64,8.46,8.57,8.46,19.38,0,7.84-2.45,13.52-7.09,16.42,0,0,0,0,0,0a23.4,23.4,0,0,0-2.7.53l-.13,0a31.78,31.78,0,0,0-4.64,1.59l-.66-.15a.27.27,0,0,0-.09,0l-.11,0c-.17,0-16.46-2-25.38-13.86a27.44,27.44,0,0,1-2.65-4.28A24.87,24.87,0,0,0,170.29,86.18Zm40,18.42a53.21,53.21,0,0,1,7.22,2.13l-8.92,12.93-10.66.48Zm10.65,3.55c1.68.77,3.26,1.57,4.72,2.41l-4.72,8.55-7.81.35Zm7.8,4.33a53.5,53.5,0,0,1,7.43,6l-11,.49ZM214.68,89.54a12.63,12.63,0,0,1-6.74,10.91,61.5,61.5,0,0,0-6.14-.64c2.79-3.18,5.14-8.25,5.14-16.36,0-.32,0-.62,0-.94a17.5,17.5,0,0,0,3-3.15A14.27,14.27,0,0,1,214.68,89.54ZM209.2,71a11.14,11.14,0,0,1-2.72,6.84c-2-12.44-10.47-17.65-12.25-18.62A8,8,0,0,0,192.77,57a6.34,6.34,0,0,0-.64-.63c3.94.19,8.49,1.12,11.81,4C207.41,63.29,209.32,67.2,209.2,71ZM175.89,45.47a18.92,18.92,0,0,1,15.21,7.21,37.64,37.64,0,0,0-8,.67s-.07,0-.12,0a1.33,1.33,0,0,0-.19.05l-.1.07s0,0-.05,0a1.37,1.37,0,0,0-.3.19s-.08,0-.11.07a33.87,33.87,0,0,1-2.94,2.52c-1.52-3.89-4.34-6.1-8-6.1a11.33,11.33,0,0,0-9.4,4.53,13.82,13.82,0,0,0-1.39-2.71C162.1,50,166.71,45.47,175.89,45.47ZM142.1,55.63c3-3.63,6.85-5.44,10.41-4.82a7.34,7.34,0,0,1,4.29,2.38s0,0,0,.05A8.81,8.81,0,0,1,158,54.91a14.56,14.56,0,0,0-2.07,1.47A7.36,7.36,0,0,0,154,59.49a30.5,30.5,0,0,0-8.18,7.19,37.35,37.35,0,0,0-8.09,2.69A20.34,20.34,0,0,1,142.1,55.63ZM128,88.6c0-6.45,3.13-11.5,9.3-15a31.11,31.11,0,0,1,5.61-2.43A26,26,0,0,0,141,76c-2.17,7.85-.57,16.6,4.73,26-1.24-.09-2.51-.16-3.85-.16a30.4,30.4,0,0,0-8.62,1.27A23.33,23.33,0,0,1,128,88.6Zm31.24,48.46a31.7,31.7,0,0,0-9-2l5.92-10.16h10.14v4.94a17.32,17.32,0,0,1-7.08,7.25Zm-22.86-.61L144,124.86h8l-5.86,10A44.29,44.29,0,0,0,136.41,136.45Zm-6.82,2-.49-.22a33.61,33.61,0,0,1-4.51-2.11l7.72-11.24h7.34l-8.5,13a.36.36,0,0,0,0,.09Zm7.92-32.52,3.25,15.32h-8.51l-7.66-9.92A34.26,34.26,0,0,1,137.51,105.91Zm9.28-.1,5.77,15.42h-8.09l-3.33-15.68.76,0A44,44,0,0,1,146.79,105.81ZM166.36,117v4.21h-9.92l-5.52-14.74c9.41,2.07,14.18,7,15.44,8.45Zm-44.71-3.59,6,7.8h-14.2A57.74,57.74,0,0,1,121.65,113.43Zm-8.92,11.43h15.18l-6.39,9.31A32.5,32.5,0,0,1,112.73,124.86Zm50.34,14a22.48,22.48,0,0,0,3.29-2.88v5.22A21.6,21.6,0,0,0,163.07,138.9Zm7.81-26.4a4.45,4.45,0,0,0-1.59.3c-1.41-1.73-7.25-8-19-10.12-5.92-9.49-7.88-18.11-5.81-25.63a24.61,24.61,0,0,1,8.71-12.61A40.79,40.79,0,0,0,154.51,80c0,.11.06.21.09.32a31.6,31.6,0,0,0,5,9.93c7.12,9.44,18,13.15,23.86,14.52a68.27,68.27,0,0,0-10.94,8.1A4.57,4.57,0,0,0,170.88,112.5ZM175.4,117v-1.91c1.89-1.68,8.27-7.06,15.2-9.92l-7.26,15.6-7.94.36Zm37.32,6.09,8.44-.38,5.78,7.77a57.1,57.1,0,0,1-7,4.46Zm17.06,5.13-4.24-5.7,10.64-.48A61.77,61.77,0,0,1,229.78,128.24Z"/><path d="M205,179.78l-.49-.48-23.78-23.78a1.82,1.82,0,0,0-2.57,0,1.84,1.84,0,0,0,0,2.57l23.78,23.77.52.51c1.87,1.83,6.82,6.68,6.84,10.32a3,3,0,0,1-1,2.31,4.51,4.51,0,0,1-3.18,1.43c-2.5,0-4.85-2.17-5.35-2.66-1.05-1.09-2.11-2-2.93-2.76-.36-.32-.65-.57-.83-.75l-7.84-7.85L185.58,185l7.84,7.84c.22.22.57.53,1,.91,1.69,1.49,5.65,5,5.73,7.63a2.31,2.31,0,0,1-.77,1.76,3.4,3.4,0,0,1-2.61,1.18c-1.87-.09-3.76-1.89-4.33-2.58h0a18.44,18.44,0,0,0-1.76-2l-9.43-9.44-2.56,2.57,9.43,9.44a9.59,9.59,0,0,1,2.77,4.16,3.28,3.28,0,0,1-1.12,3.32c-1.79,1.79-4.45.5-5.36,0a9.63,9.63,0,0,0-1.59-2.09c-2.19-2.19-7.81-8.52-7.87-8.58a1.81,1.81,0,1,0-2.71,2.41c.23.26,5.75,6.47,8,8.74a6,6,0,0,1,1.74,3.21,3.34,3.34,0,0,1-1,3.06,1.78,1.78,0,0,1-1.31.52c-1.22,0-4.09-.87-9.59-6.55a1.81,1.81,0,1,0-2.6,2.53c5,5.12,8.94,7.62,12.16,7.65h.05a5.33,5.33,0,0,0,3.85-1.58,7.06,7.06,0,0,0,2.13-5,8.86,8.86,0,0,0,1.87.22,6.56,6.56,0,0,0,4.79-2,7.16,7.16,0,0,0,2.27-4.8,7.19,7.19,0,0,0,2,.41h.33a7.05,7.05,0,0,0,5-2.25,5.89,5.89,0,0,0,1.83-4.43,6.86,6.86,0,0,0-.19-1.35,8.7,8.7,0,0,0,1.46.16h.11a7.87,7.87,0,0,0,5.7-2.5,6.66,6.66,0,0,0,2-4.89C212.86,187.51,207.32,182.09,205,179.78Z"/><path d="M167.33,201a6.71,6.71,0,0,0-1.65.24,10.12,10.12,0,0,0,1.11-4.27,6.66,6.66,0,0,0-2-4.86,5.53,5.53,0,0,0-4-1.67,7.58,7.58,0,0,0-2.9.63,6.3,6.3,0,0,0-2.15-4.45c-2.89-2.67-6.23-1.8-9.12,0,0-.16,0-.32,0-.48a5.13,5.13,0,0,0-1.6-3.74,4.66,4.66,0,0,0-3.25-1.33c-3.06,0-5.92,2.88-8.21,5.19l-.46.45a35.9,35.9,0,0,0-5.15,6.38c-2.74,4.62-1.66,7.25-.26,8.64a4.91,4.91,0,0,0,3.54,1.52,5.9,5.9,0,0,0,1.8-.33c-.65,2.34-.45,4.56,1.32,6.32a6.46,6.46,0,0,0,4.66,2,7.69,7.69,0,0,0,2-.3,5.91,5.91,0,0,0,1.64,5.24,5.78,5.78,0,0,0,4.21,1.82h0a9.54,9.54,0,0,0,5.31-2,5.63,5.63,0,0,0,1.14,5.1,4.43,4.43,0,0,0,3.45,1.53h0c5.32,0,12.59-8.13,14.7-13.4,1.49-3.71.54-5.7-.52-6.72A5.25,5.25,0,0,0,167.33,201Zm-37-1.84c-.92-.93.12-3,.82-4.22a31.55,31.55,0,0,1,4.6-5.67l.46-.47c1.53-1.54,4.09-4.12,5.64-4.12a1,1,0,0,1,.75.34,1.49,1.49,0,0,1,.47,1.16c0,2.23-2.68,6-5.38,8.65l-.64.66c-1.41,1.44-4,4.12-5.74,4.12A1.32,1.32,0,0,1,130.29,199.15Zm6.66,7.51c-2.11-2.11,1.84-8,6.69-12.82s7.82-6.25,9.65-4.57c.68.64,2.09,2-.59,5.34-1,.88-2,1.83-2.94,2.8a44,44,0,0,0-6.71,8.34C141.53,207,138.92,208.63,137,206.66Zm8.34,6.93c-2.27-2.27,1.9-8.48,7-13.62.77-.77,1.79-1.78,2.9-2.76l.15-.12v0c1.83-1.59,3.86-3,5.42-3a1.85,1.85,0,0,1,1.39.61,3.12,3.12,0,0,1,1,2.29c0,3.55-4.93,8.43-7,10.51l-.51.5-.83.85c-2,2.07-5.39,5.53-7.85,5.53A2.26,2.26,0,0,1,145.29,213.59Zm22.89-5.75c-2,4.88-8.32,11.12-11.34,11.12a.82.82,0,0,1-.71-.28c-1.39-1.6.93-6,5.64-10.69,2.11-2.11,4.19-3.37,5.56-3.37a1.6,1.6,0,0,1,1.18.47C168.78,205.35,168.78,206.32,168.18,207.84Z"/><path d="M157,166.14c0-7.91,12.43-16.92,18.4-21.25,1.3-.94,2.32-1.69,3-2.25,4.1-3.4,12.72-5.42,23.06-5.42,8,0,8.57.88,13.18,3.18,1.59.8,5.18-.8,3.59-1.6-5.1-2.55-7.79-5.21-16.77-5.21-11.32,0-20.57,2.28-25.37,6.25-.59.5-1.62,1.24-2.82,2.11-6.93,5-19.82,14.38-19.89,24.11-.09,1-.68,9.89,3.33,14.28a7.55,7.55,0,0,0,5.79,2.51,6.52,6.52,0,0,0,4.91-1.92c2.61-2.75,2.37-7.61,2.18-11.51a20,20,0,0,1,0-4.06c2.12-2.72,6.7-6.74,9.81-6.74a1.82,1.82,0,0,0,0-3.63c-5.2,0-10.91,5.88-12.67,8.15-1,1.32-.92,3.47-.78,6.45s.35,7.22-1.19,8.83a2.84,2.84,0,0,1-2.28.8,4,4,0,0,1-3.11-1.32c-2.56-2.8-2.6-9.32-2.39-11.59Z"/></g><path d="M169.76,36A137.95,137.95,0,0,1,267.3,271.44,137.95,137.95,0,1,1,72.22,76.35,137,137,0,0,1,169.76,36m0-23.14A161.09,161.09,0,1,0,330.84,173.89,161.08,161.08,0,0,0,169.76,12.81Z"/><path class="cls-1" d="M105.62,313.38a2.34,2.34,0,0,1-.41-1.08,2.14,2.14,0,0,1,.18-1.16,2,2,0,0,1,.74-.88,2.38,2.38,0,0,1,1.09-.41,2.24,2.24,0,0,1,1.15.18,2.29,2.29,0,0,1,.91.75,2.49,2.49,0,0,1,.43,1.1,2.1,2.1,0,0,1-.18,1.13,2.16,2.16,0,0,1-.74.9,2.29,2.29,0,0,1-1.1.4,2.23,2.23,0,0,1-1.16-.2A2.19,2.19,0,0,1,105.62,313.38Z"/><path class="cls-1" d="M125,323.68l6.79,1.92-.47,1.67-8.75-2.48L126.52,311l8.64,2.45-.47,1.66L128,313.18l-1.21,4.31,5.84,1.66-.67,1.56-5.63-1.59Z"/><path class="cls-1" d="M136.66,328.27a7.63,7.63,0,0,1-2-1.62l1.23-1.25a6.28,6.28,0,0,0,1.78,1.39,7.22,7.22,0,0,0,2,.73,4.19,4.19,0,0,0,2.49-.1,2,2,0,0,0,1.15-1.57,2,2,0,0,0-.08-1.17,2.68,2.68,0,0,0-.81-1,13.14,13.14,0,0,0-1.75-1.16l-.34-.21a14,14,0,0,1-2-1.37,4,4,0,0,1-1.14-1.49,3.38,3.38,0,0,1-.15-2,3.24,3.24,0,0,1,1.06-1.93,4,4,0,0,1,2-.92,6.75,6.75,0,0,1,2.41,0,9,9,0,0,1,2.41.8,8,8,0,0,1,2.07,1.5l-1.19,1.26a7.48,7.48,0,0,0-1.68-1.23,6.78,6.78,0,0,0-2-.66,3.61,3.61,0,0,0-2,.11,1.66,1.66,0,0,0-1.05,1.34,1.64,1.64,0,0,0,.08,1,2.53,2.53,0,0,0,.72.91,12.61,12.61,0,0,0,1.59,1.07l.35.2a18.84,18.84,0,0,1,2.15,1.4,4.34,4.34,0,0,1,1.25,1.57,3.53,3.53,0,0,1,.22,2.29,3.93,3.93,0,0,1-1.06,2.11,4,4,0,0,1-2.07,1,7.82,7.82,0,0,1-2.88-.06A9.1,9.1,0,0,1,136.66,328.27Z"/><path class="cls-1" d="M160.57,317.32l-.18,1.76-4.94-.5-1.29,12.53-2-.21,1.29-12.53-5-.51.18-1.77Z"/><path class="cls-1" d="M177.51,329.94l0,1.72-9.37.24,0-1,.78-.82c1.72-1.81,3-3.17,3.74-4.06a15.57,15.57,0,0,0,1.81-2.46,4,4,0,0,0,.63-2.1,2.58,2.58,0,0,0-.69-1.88,2.42,2.42,0,0,0-1.84-.61,4.54,4.54,0,0,0-1.89.47,7.26,7.26,0,0,0-1.73,1.13l-1.11-1.26a7.2,7.2,0,0,1,2.23-1.57,6.83,6.83,0,0,1,2.7-.62,5,5,0,0,1,2.22.43,3.78,3.78,0,0,1,1.59,1.37,4.06,4.06,0,0,1,.61,2.13,5.67,5.67,0,0,1-.55,2.58,13.09,13.09,0,0,1-1.78,2.69c-.79,1-1.92,2.2-3.41,3.74Z"/><path class="cls-1" d="M182.35,329.63a9.73,9.73,0,0,1-1.82-5.39,10.37,10.37,0,0,1,.37-4.45,5.18,5.18,0,0,1,1.77-2.56,5.34,5.34,0,0,1,2.56-.94,4.48,4.48,0,0,1,2.86.61,5.38,5.38,0,0,1,2,2.38,12.14,12.14,0,0,1,1,4,10.63,10.63,0,0,1-.35,4.48,4.87,4.87,0,0,1-1.73,2.49,5.53,5.53,0,0,1-2.61.92A4.38,4.38,0,0,1,182.35,329.63Zm5.7-.93a3.54,3.54,0,0,0,.88-1.95,12.67,12.67,0,0,0,0-3.3,9.26,9.26,0,0,0-1.2-4.26A2.53,2.53,0,0,0,185.3,318a2.64,2.64,0,0,0-2.29,1.64,12.06,12.06,0,0,0,.8,8.68,2.56,2.56,0,0,0,2.49,1.17A2.71,2.71,0,0,0,188.05,328.7Z"/><path class="cls-1" d="M203.51,326.37l.33,1.69-9.2,1.79-.19-1,.63-.94c1.39-2.07,2.4-3.61,3-4.62a15.9,15.9,0,0,0,1.38-2.73,4.11,4.11,0,0,0,.27-2.18,2.63,2.63,0,0,0-1-1.74,2.46,2.46,0,0,0-1.91-.29,4.77,4.77,0,0,0-1.79.77,7.78,7.78,0,0,0-1.52,1.4l-1.31-1.05a7.42,7.42,0,0,1,1.95-1.92,7,7,0,0,1,2.56-1.06,5,5,0,0,1,2.26.06,3.77,3.77,0,0,1,1.79,1.09,4,4,0,0,1,1,2,5.65,5.65,0,0,1-.12,2.64,12.82,12.82,0,0,1-1.3,2.95c-.63,1.07-1.54,2.49-2.75,4.26Z"/><path class="cls-1" d="M213.38,323.76l2.92-.83.48,1.67L208.2,327l-.47-1.66,3.69-1.05-2.84-10.05-2.64,2.66-1.12-.95,3.16-3.82,2-.55Z"/><path class="cls-1" d="M231.31,314.22a2.26,2.26,0,0,1-1.08-.4,2.07,2.07,0,0,1-.75-.9,2.12,2.12,0,0,1-.18-1.14,2.44,2.44,0,0,1,.42-1.09,2.16,2.16,0,0,1,.9-.74,2.06,2.06,0,0,1,1.15-.18,2.29,2.29,0,0,1,1.11.4,2,2,0,0,1,.74.88,2.14,2.14,0,0,1,.18,1.15,2.39,2.39,0,0,1-.42,1.09,2.31,2.31,0,0,1-.92.74A2.1,2.1,0,0,1,231.31,314.22Z"/><path class="cls-1" d="M20.35,213.2q1.11-2.34,4.72-3.39a7.49,7.49,0,0,1,4.14-.17,5.88,5.88,0,0,1,3.06,2,10.16,10.16,0,0,1,1.91,3.79l1.1,3.79-13.8,4-1.2-4.15A8.26,8.26,0,0,1,20.35,213.2Zm10.88-.07a3.81,3.81,0,0,0-2.16-1.5,6.41,6.41,0,0,0-3.4.23,5.62,5.62,0,0,0-3.61,2.41,5.5,5.5,0,0,0-.14,4.26l.66,2.24,10.47-3.05-.46-1.6A9.7,9.7,0,0,0,31.23,213.13Z"/><path class="cls-1" d="M29.3,203.17,28,196.24l1.71-.32,1.68,8.93-14.12,2.67-1.67-8.82,1.7-.32,1.29,6.82,4.41-.84-1.13-6,1.69-.1,1.09,5.75Z"/><path class="cls-1" d="M13.67,179.45,28,178.32l.16,2-11,.87a17.94,17.94,0,0,1,2.06.7l7,2.92.15,2-6.43,3.91-1,.63-.86.48,11-.87.15,1.94L14.82,194l-.18-2.32L20.71,188a31,31,0,0,1,3.73-2c-.52-.13-1.1-.31-1.76-.54s-1.4-.54-2.25-.9l-6.58-2.75Z"/><path class="cls-1" d="M27.42,172.31a5.83,5.83,0,0,1-2.72,2.16,9.31,9.31,0,0,1-3.95.61A8.43,8.43,0,0,1,16.64,174a6,6,0,0,1-2.36-2.58,7.43,7.43,0,0,1-.66-3.47,6.73,6.73,0,0,1,1.09-3.61,5.82,5.82,0,0,1,2.71-2.17,9.34,9.34,0,0,1,3.95-.61,8.37,8.37,0,0,1,4.11,1.09,6,6,0,0,1,2.36,2.58,7.56,7.56,0,0,1,.67,3.47A6.79,6.79,0,0,1,27.42,172.31ZM26.16,166a4.34,4.34,0,0,0-1.92-1.66,7.62,7.62,0,0,0-2.93-.63,8.23,8.23,0,0,0-3,.38A4,4,0,0,0,15.35,168a4.54,4.54,0,0,0,.62,2.66,4.32,4.32,0,0,0,1.92,1.65,7.57,7.57,0,0,0,2.92.63,8.52,8.52,0,0,0,3.05-.37A4.43,4.43,0,0,0,26,171.14a4.29,4.29,0,0,0,.83-2.52A4.56,4.56,0,0,0,26.16,166Z"/><path class="cls-1" d="M28.55,156.66a5.47,5.47,0,0,1-2.86,1.83,9.81,9.81,0,0,1-4,.16,8.77,8.77,0,0,1-4.13-1.51,5.77,5.77,0,0,1-2.08-2.72,7.15,7.15,0,0,1-.3-3.33,8.94,8.94,0,0,1,.68-2.43,8.78,8.78,0,0,1,1.27-2l1.41,1.09A6.78,6.78,0,0,0,17,151.25a4,4,0,0,0,1,3.58,6.93,6.93,0,0,0,3.91,1.66,6.84,6.84,0,0,0,4.33-.56,4,4,0,0,0,2-3.14,7.09,7.09,0,0,0,0-2.06,9,9,0,0,0-.56-1.92l1.59-.6a11.6,11.6,0,0,1,.71,2.41,8.36,8.36,0,0,1,0,2.5A7,7,0,0,1,28.55,156.66Z"/><path class="cls-1" d="M33.19,135.64l.13,0L32.78,138l-6.42,2.75-.49,2.07,5.47,1.29-.47,2-14-3.3L18,138.2a7,7,0,0,1,1.17-2.66A3.91,3.91,0,0,1,21,134.18a4.21,4.21,0,0,1,2.29-.06,4.77,4.77,0,0,1,1.75.81,4.24,4.24,0,0,1,1.19,1.48,4.91,4.91,0,0,1,.45,2.09Zm-9,6.75.54-2.27a3.87,3.87,0,0,0-.12-2.61,2.53,2.53,0,0,0-1.78-1.3,2.43,2.43,0,0,0-2.06.32,3.5,3.5,0,0,0-1.18,2.11l-.6,2.52Z"/><path class="cls-1" d="M22.52,122.6l15.21-.5.13,0-.69,2-4.37.1-2,5.79,3.4,2.73-.66,1.94-.13-.05L21.71,125Zm6.91,6.31L31,124.29l-7.08.15Z"/><path class="cls-1" d="M29.11,106.43l1.63.71-2,4.56,11.55,5-.82,1.87-11.54-5-2,4.57-1.62-.71Z"/><path class="cls-1" d="M43.53,110l-12.76-6.62.94-1.81,12.76,6.62Z"/><path class="cls-1" d="M46.85,102.52a5.49,5.49,0,0,1-3.35.54,9.77,9.77,0,0,1-3.73-1.42,8.88,8.88,0,0,1-3.19-3,5.8,5.8,0,0,1-.83-3.33,7,7,0,0,1,1-3.18,8.92,8.92,0,0,1,1.58-2,9,9,0,0,1,2-1.36l.87,1.57A6.77,6.77,0,0,0,38.35,93a3.92,3.92,0,0,0-.48,3.69,6.84,6.84,0,0,0,2.94,3.07,6.82,6.82,0,0,0,4.2,1.2,4,4,0,0,0,3.07-2.1,6.83,6.83,0,0,0,.81-1.9,8.8,8.8,0,0,0,.24-2l1.7.08a12.06,12.06,0,0,1-.3,2.5,8.5,8.5,0,0,1-1,2.29A7,7,0,0,1,46.85,102.52Z"/><path class="cls-1" d="M57.13,88a7.76,7.76,0,0,1-2.39,1l-.53-1.68a6.24,6.24,0,0,0,2.06-.92A7,7,0,0,0,57.86,85a4.17,4.17,0,0,0,1.07-2.25A2,2,0,0,0,58.09,81,2.06,2.06,0,0,0,57,80.57a2.7,2.7,0,0,0-1.25.25,14.85,14.85,0,0,0-1.84,1l-.34.21a14.45,14.45,0,0,1-2.17,1.16,4,4,0,0,1-1.85.31,3.4,3.4,0,0,1-1.85-.81,3.28,3.28,0,0,1-1.22-1.83,4.11,4.11,0,0,1,.12-2.19,6.68,6.68,0,0,1,1.16-2.12,8.88,8.88,0,0,1,1.83-1.75,8.09,8.09,0,0,1,2.3-1.13l.56,1.64a7.65,7.65,0,0,0-1.88.91,7,7,0,0,0-1.49,1.42,3.61,3.61,0,0,0-.84,1.82A1.65,1.65,0,0,0,49,81a1.69,1.69,0,0,0,.89.39A2.5,2.5,0,0,0,51,81.19a11.84,11.84,0,0,0,1.69-.91l.34-.21a17.83,17.83,0,0,1,2.24-1.25,4.44,4.44,0,0,1,2-.37,3.54,3.54,0,0,1,2.13.88,3.85,3.85,0,0,1,1.37,1.92,4,4,0,0,1-.06,2.31,7.67,7.67,0,0,1-1.4,2.51A9.08,9.08,0,0,1,57.13,88Z"/><path class="cls-1" d="M65.26,77.57a5.87,5.87,0,0,1-3.46-.21,9.39,9.39,0,0,1-3.35-2.19,8.42,8.42,0,0,1-2.32-3.56,6,6,0,0,1,0-3.5,7.39,7.39,0,0,1,1.83-3,6.69,6.69,0,0,1,3.23-2,5.87,5.87,0,0,1,3.46.21A9.48,9.48,0,0,1,68,65.53a8.4,8.4,0,0,1,2.32,3.56,6,6,0,0,1,0,3.5,7.35,7.35,0,0,1-1.83,3A6.71,6.71,0,0,1,65.26,77.57ZM68.57,72a4.31,4.31,0,0,0-.32-2.51,7.68,7.68,0,0,0-1.75-2.43A8.5,8.5,0,0,0,64,65.31,4.43,4.43,0,0,0,61.47,65a4.3,4.3,0,0,0-2.3,1.32,4.47,4.47,0,0,0-1.32,2.38,4.34,4.34,0,0,0,.32,2.52,7.9,7.9,0,0,0,1.75,2.43,8.46,8.46,0,0,0,2.52,1.75,4.27,4.27,0,0,0,2.51.33,4.21,4.21,0,0,0,2.3-1.31A4.53,4.53,0,0,0,68.57,72Z"/><path class="cls-1" d="M76.56,66.71a5.5,5.5,0,0,1-3.34-.56,9.79,9.79,0,0,1-3.08-2.54,8.9,8.9,0,0,1-2-3.88,5.73,5.73,0,0,1,.27-3.41,6.88,6.88,0,0,1,2-2.68,8.56,8.56,0,0,1,4.42-2l.32,1.76a6.79,6.79,0,0,0-3.53,1.55,3.9,3.9,0,0,0-1.64,3.34,8.22,8.22,0,0,0,5.39,6.34,4,4,0,0,0,3.58-1,7.46,7.46,0,0,0,1.38-1.53,9.37,9.37,0,0,0,.86-1.8l1.58.61a11.11,11.11,0,0,1-1.08,2.27A8.23,8.23,0,0,1,80,65,7,7,0,0,1,76.56,66.71Z"/><path class="cls-1" d="M85.51,60.37,77,48.76l1.65-1.2,8.48,11.6Z"/><path class="cls-1" d="M88.13,41.25l12.14,9.19.07.12-1.8,1.13L95.08,49,89.9,52.26l.92,4.26-1.73,1.09L89,57.5,86,42.57Zm1.4,9.25,4.13-2.59-5.59-4.34Z"/><path class="cls-1" d="M103.53,47l6.29-3.19.8,1.59-8.11,4.1L96,36.65l1.82-.92Z"/><path class="cls-1" d="M113,44.4l-5.68-13.2,1.87-.81,5.68,13.2Z"/><path class="cls-1" d="M119.54,41.51a7.5,7.5,0,0,1-2.58-.37l.43-1.7a6.43,6.43,0,0,0,2.24.3,7.2,7.2,0,0,0,2.11-.38,4.33,4.33,0,0,0,2.1-1.36,2,2,0,0,0,.19-1.93,1.92,1.92,0,0,0-.66-1,2.56,2.56,0,0,0-1.19-.44,14.1,14.1,0,0,0-2.1-.12h-.4a14.24,14.24,0,0,1-2.45-.15,4.06,4.06,0,0,1-1.74-.71A3.4,3.4,0,0,1,114.34,32a3.21,3.21,0,0,1-.06-2.2,4,4,0,0,1,1.25-1.8,6.66,6.66,0,0,1,2.1-1.19,8.89,8.89,0,0,1,2.48-.53,8.07,8.07,0,0,1,2.55.25l-.39,1.69a7.8,7.8,0,0,0-2.08-.22,7.09,7.09,0,0,0-2,.42,3.75,3.75,0,0,0-1.68,1.11,1.86,1.86,0,0,0,.33,2.48,2.46,2.46,0,0,0,1.09.41,10,10,0,0,0,1.91.12h.4a18.32,18.32,0,0,1,2.56.12,4.59,4.59,0,0,1,1.88.72A3.58,3.58,0,0,1,126,35.28a3.85,3.85,0,0,1,.15,2.35,4,4,0,0,1-1.26,1.94A7.74,7.74,0,0,1,122.38,41,8.92,8.92,0,0,1,119.54,41.51Z"/><path class="cls-1" d="M136.7,21.57l.44,1.72-4.81,1.24,3.14,12.19-2,.51L130.35,25l-4.83,1.25-.44-1.72Z"/><path class="cls-1" d="M150.36,33.18a5.48,5.48,0,0,1-2.5-2.29,9.77,9.77,0,0,1-1.18-3.81,8.79,8.79,0,0,1,.4-4.37,5.79,5.79,0,0,1,2.1-2.71,6.93,6.93,0,0,1,3.14-1.15,8.8,8.8,0,0,1,2.52,0,9,9,0,0,1,2.28.71l-.69,1.65a6.92,6.92,0,0,0-3.81-.64,4,4,0,0,0-3.2,1.91,6.91,6.91,0,0,0-.6,4.2,7,7,0,0,0,1.65,4.05A4,4,0,0,0,154,31.87a6.82,6.82,0,0,0,2-.53,9,9,0,0,0,1.71-1l1,1.38A11.59,11.59,0,0,1,156.56,33a8.11,8.11,0,0,1-2.42.64A7,7,0,0,1,150.36,33.18Z"/><path class="cls-1" d="M167.25,18.16,173,32.26v.13l-2.12.06-1.61-4.07-6.12.15-1.38,4.14-2.05,0v-.13l5.05-14.37Zm-3.52,8.67,4.88-.12L166,20.12Z"/><path class="cls-1" d="M177.14,32.15a4.92,4.92,0,0,1-1.81-2.28,7.14,7.14,0,0,1-.41-3.14l.63-8.6,2,.15-.6,8.16c-.23,3.11,1,4.77,3.68,5a3.52,3.52,0,0,0,3.06-1,5.33,5.33,0,0,0,1.16-3.28l.61-8.3,2,.15-.63,8.54a6.74,6.74,0,0,1-1,3.4,4.74,4.74,0,0,1-2.3,1.82,7.34,7.34,0,0,1-3.16.39A6.48,6.48,0,0,1,177.14,32.15Z"/><path class="cls-1" d="M192.13,33.57a5.5,5.5,0,0,1-1.73-2.91,9.67,9.67,0,0,1,0-4A8.9,8.9,0,0,1,192,22.6a5.74,5.74,0,0,1,2.79-2,7,7,0,0,1,3.34-.2,8.72,8.72,0,0,1,4.39,2.09l-1.14,1.38a6.9,6.9,0,0,0-3.46-1.71,3.94,3.94,0,0,0-3.62.91,6.87,6.87,0,0,0-1.78,3.85,6.86,6.86,0,0,0,.41,4.35A4,4,0,0,0,196,33.37a6.57,6.57,0,0,0,2.06.06,9,9,0,0,0,1.93-.49l.56,1.6a11.62,11.62,0,0,1-2.44.64,8.17,8.17,0,0,1-2.5-.08A6.89,6.89,0,0,1,192.13,33.57Z"/><path class="cls-1" d="M205,36.3a4.76,4.76,0,0,1-1.33-2.59,7.13,7.13,0,0,1,.21-3.15l2.32-8.31,2,.55-2.19,7.88q-1.26,4.51,2.63,5.59a3.53,3.53,0,0,0,3.19-.34,5.4,5.4,0,0,0,1.79-3l2.23-8,2,.55-2.29,8.24a6.75,6.75,0,0,1-1.71,3.13,4.69,4.69,0,0,1-2.61,1.33A7.42,7.42,0,0,1,208,38,6.48,6.48,0,0,1,205,36.3Z"/><path class="cls-1" d="M218.29,40.76a7.5,7.5,0,0,1-1.71-2l1.43-1a6.3,6.3,0,0,0,1.5,1.68,7.16,7.16,0,0,0,1.85,1.09,4.3,4.3,0,0,0,2.48.34,2.27,2.27,0,0,0,1.53-2.5,2.72,2.72,0,0,0-.61-1.1,14.78,14.78,0,0,0-1.52-1.46l-.3-.26a13.84,13.84,0,0,1-1.76-1.72,3.85,3.85,0,0,1-.85-1.67,3.67,3.67,0,0,1,1.59-3.72,4.12,4.12,0,0,1,2.13-.55,6.57,6.57,0,0,1,2.36.47,9,9,0,0,1,2.23,1.22,8.2,8.2,0,0,1,1.76,1.85l-1.39,1A7.8,7.8,0,0,0,227.58,31a6.92,6.92,0,0,0-1.81-1,3.67,3.67,0,0,0-2-.25,1.67,1.67,0,0,0-1.27,1.13,1.69,1.69,0,0,0-.1,1,2.38,2.38,0,0,0,.56,1,10.35,10.35,0,0,0,1.37,1.34l.3.26a18.52,18.52,0,0,1,1.86,1.76,4.48,4.48,0,0,1,1,1.77,3.57,3.57,0,0,1-.2,2.29,3.87,3.87,0,0,1-1.42,1.89,4,4,0,0,1-2.22.64,7.72,7.72,0,0,1-2.82-.58A9.15,9.15,0,0,1,218.29,40.76Z"/><path class="cls-1" d="M246.8,49.79a2.28,2.28,0,0,1-.26-1.12,2.12,2.12,0,0,1,.33-1.13,2.2,2.2,0,0,1,.86-.77,2.32,2.32,0,0,1,1.14-.25,2.18,2.18,0,0,1,1.11.33,2.28,2.28,0,0,1,.79.87,2.4,2.4,0,0,1,.28,1.14,2.18,2.18,0,0,1-.33,1.11,2.24,2.24,0,0,1-.86.78,2.29,2.29,0,0,1-3.06-1Z"/><path class="cls-1" d="M261.37,65.06a5.53,5.53,0,0,1,0-3.39,9.9,9.9,0,0,1,2-3.43,8.85,8.85,0,0,1,3.51-2.64,5.81,5.81,0,0,1,3.42-.27,6.9,6.9,0,0,1,3,1.56,8.47,8.47,0,0,1,2.68,4l-1.69.59a6.81,6.81,0,0,0-2.09-3.24,3.91,3.91,0,0,0-3.56-1.09,8.25,8.25,0,0,0-5.4,6.32,4,4,0,0,0,1.56,3.37A6.44,6.44,0,0,0,266.53,68a9.06,9.06,0,0,0,1.91.57l-.36,1.66a11,11,0,0,1-2.41-.71,8.12,8.12,0,0,1-2.1-1.35A7,7,0,0,1,261.37,65.06Z"/><path class="cls-1" d="M269,72.89l10.12-10.2,1.45,1.43L270.48,74.33Z"/><path class="cls-1" d="M291,75.54l-1.33,1.17L286.43,73,277,81.32l-1.35-1.53,9.45-8.33-3.3-3.74,1.33-1.18Z"/><path class="cls-1" d="M299.89,87.47l-.11.08-10.11.78-4.53,3.3L283.94,90l4.59-3.35,3.87-9.21.11-.08,1.32,1.81-3.21,7.3,8-.69Z"/><path class="cls-1" d="M294.18,104.47a5.86,5.86,0,0,1,1.27-3.23,9.35,9.35,0,0,1,3.11-2.52,8.42,8.42,0,0,1,4.1-1.11,6,6,0,0,1,3.34,1,7.52,7.52,0,0,1,2.31,2.67,6.82,6.82,0,0,1,.88,3.67,5.92,5.92,0,0,1-1.27,3.24,9.33,9.33,0,0,1-3.11,2.51,8.33,8.33,0,0,1-4.1,1.12,5.94,5.94,0,0,1-3.34-1,7.4,7.4,0,0,1-2.31-2.66A6.83,6.83,0,0,1,294.18,104.47Zm4.28,4.85a4.36,4.36,0,0,0,2.49.47,7.75,7.75,0,0,0,2.85-.92,8.39,8.39,0,0,0,2.44-1.86,4.3,4.3,0,0,0,1.08-2.29,4.17,4.17,0,0,0-.54-2.59,4.53,4.53,0,0,0-1.87-2,4.28,4.28,0,0,0-2.49-.46,7.57,7.57,0,0,0-2.85.92,8.2,8.2,0,0,0-2.44,1.85,4.3,4.3,0,0,0-1.08,2.29,4.2,4.2,0,0,0,.54,2.6A4.45,4.45,0,0,0,298.46,109.32Z"/><path class="cls-1" d="M314.76,120.4,312.13,114l-4.47,1.84,2.3,5.59-1.69.46-2.21-5.4-5.62,2.31-.78-1.89,13.3-5.45,3.41,8.3Z"/><path class="cls-1" d="M306.9,135.08a5.52,5.52,0,0,1,1.91-2.79,9.85,9.85,0,0,1,3.61-1.71,8.79,8.79,0,0,1,4.38-.22,5.76,5.76,0,0,1,3,1.69,7,7,0,0,1,1.58,2.95,8.94,8.94,0,0,1,.32,2.5,8.37,8.37,0,0,1-.38,2.36l-1.72-.45a6.86,6.86,0,0,0,.09-3.86,3.93,3.93,0,0,0-2.33-2.9,8.25,8.25,0,0,0-8,2.2,4,4,0,0,0-.61,3.67,6.72,6.72,0,0,0,.81,1.9,8.87,8.87,0,0,0,1.26,1.54l-1.23,1.18a11.54,11.54,0,0,1-1.59-1.95,8.45,8.45,0,0,1-1-2.3A7,7,0,0,1,306.9,135.08Z"/><path class="cls-1" d="M324.71,153.28l.33,2-14.19,2.27-.33-2,6.38-1-1.26-7.84-6.37,1-.32-2,14.18-2.28.33,2-6.11,1,1.26,7.83Z"/><path class="cls-1" d="M311.12,161.46l14.33-1.18.16,2-14.32,1.17Z"/><path class="cls-1" d="M312.28,169.54a5.5,5.5,0,0,1,2.53-2.25,9.74,9.74,0,0,1,3.92-.78,8.87,8.87,0,0,1,4.3.85,5.81,5.81,0,0,1,2.48,2.37,7,7,0,0,1,.81,3.25,8.48,8.48,0,0,1-1.23,4.69l-1.57-.86a6.79,6.79,0,0,0,1-3.72,3.92,3.92,0,0,0-1.56-3.38,8.24,8.24,0,0,0-8.31.19,4,4,0,0,0-1.48,3.41,6.71,6.71,0,0,0,.32,2,8.61,8.61,0,0,0,.85,1.8l-1.48.85a11.08,11.08,0,0,1-1.07-2.28,8.3,8.3,0,0,1-.4-2.47A6.89,6.89,0,0,1,312.28,169.54Z"/><path class="cls-1" d="M325.47,187.92l-14.62,4.26h-.13l.17-2.12,4.2-1.18.49-6.1-4-1.8.16-2h.14l13.77,6.5Zm-8.26-4.39-.39,4.86,6.83-1.9Z"/><path class="cls-1" d="M316.33,206.28l-6.9-1.22a13.38,13.38,0,0,1-.48-2.59,10.7,10.7,0,0,1,.17-2.69,7.37,7.37,0,0,1,1.62-3.68,5.69,5.69,0,0,1,3-1.75,9.71,9.71,0,0,1,3.92,0,8.63,8.63,0,0,1,4,1.66,5.77,5.77,0,0,1,2,2.87,7.55,7.55,0,0,1,.17,3.52,9.41,9.41,0,0,1-.78,2.47,8.29,8.29,0,0,1-1.35,2l-1.37-1.15a7.34,7.34,0,0,0,1.07-1.53,6.71,6.71,0,0,0,.65-2,4.35,4.35,0,0,0-.83-3.87,6.58,6.58,0,0,0-3.85-1.87,7,7,0,0,0-4.37.36,4.17,4.17,0,0,0-2.11,3.29,8.78,8.78,0,0,0,0,3.11L315,204l.64-3.63,1.67.53Z"/><path class="cls-1" d="M307.78,210.4a5.92,5.92,0,0,1,3.16-1.45,9.61,9.61,0,0,1,4,.36,8.41,8.41,0,0,1,3.72,2.05,6,6,0,0,1,1.68,3.07,7.46,7.46,0,0,1-.19,3.53,6.76,6.76,0,0,1-1.93,3.25,5.89,5.89,0,0,1-3.15,1.45,9.66,9.66,0,0,1-4-.36,8.41,8.41,0,0,1-3.72-2.05,6,6,0,0,1-1.67-3.07,7.34,7.34,0,0,1,.19-3.53A6.82,6.82,0,0,1,307.78,210.4Zm-.3,6.46a4.27,4.27,0,0,0,1.47,2.07,7.9,7.9,0,0,0,2.68,1.32,8.43,8.43,0,0,0,3.05.36,4.07,4.07,0,0,0,3.79-3.14,4.6,4.6,0,0,0,0-2.72,4.41,4.41,0,0,0-1.47-2.07,8,8,0,0,0-2.69-1.32,8.4,8.4,0,0,0-3.05-.36,4.34,4.34,0,0,0-2.37.89,4.25,4.25,0,0,0-1.41,2.25A4.44,4.44,0,0,0,307.48,216.86Z"/><polygon points="66.17 178.45 62.56 191.61 49.05 188.23 58.92 198.11 49.05 208.25 62.56 204.61 66.2 217.61 70.1 204.61 83.36 207.99 73.74 198.11 83.36 188.23 69.89 191.59 66.17 178.45 66.17 178.45"/><polygon points="100.4 230.63 96.79 243.79 83.27 240.41 93.15 250.29 83.27 260.43 96.79 256.79 100.43 269.79 104.33 256.79 117.58 260.17 107.97 250.29 117.58 240.41 104.11 243.77 100.4 230.63 100.4 230.63"/><polygon points="270.65 184.81 266.93 197.95 253.46 194.59 263.08 204.47 253.46 214.35 266.72 210.97 270.62 223.97 274.26 210.97 287.78 214.61 277.9 204.47 287.78 194.59 274.26 197.97 270.65 184.81 270.65 184.81"/><polygon points="236.43 237 232.71 250.13 219.24 246.78 228.86 256.65 219.24 266.53 232.5 263.15 236.4 276.15 240.03 263.15 253.55 266.79 243.67 256.65 253.55 246.78 240.03 250.16 236.43 237 236.43 237"/></svg>