<svg id="Layer_1" data-name="Layer 1" xmlns="http://www.w3.org/2000/svg" viewBox="0 0 340.74 347.11"><defs><style>.cls-1{fill:#fff;}.cls-2{fill:#ec1f27;}.cls-3{fill:#39b54a;}.cls-4{fill:#736357;}.cls-5{fill:#594a42;}.cls-6{fill:#a67c52;}.cls-10,.cls-7,.cls-8{fill:none;stroke:#231f20;stroke-miterlimit:10;}.cls-7{stroke-width:1.6px;}.cls-10,.cls-8{stroke-width:3.54px;}.cls-9{fill:#231f20;}.cls-10{stroke-linecap:round;}</style></defs><circle class="cls-1" cx="170.05" cy="176.13" r="169.76"/><path d="M170.18,11A165.09,165.09,0,0,1,286.91,292.87,165.09,165.09,0,1,1,53.44,59.39,164,164,0,0,1,170.18,11m0-1.6A166.69,166.69,0,1,0,336.86,176.13,166.69,166.69,0,0,0,170.18,9.44Z"/><path class="cls-2" d="M216.68,86c0,22.37-20.5,38.75-45.84,38.75S127,109.56,127,87.19c0-5.13,5.61-9.44,7.59-14,4.76-10.91,1.78-18.51,12.36-23.54,1.62-.77,7.58,2.63,11.18,1.59,5.59-1.61,11.69-6.65,15-6.65,10.17,0,14.86,5.29,22.47,10.24,8.51,5.53,14.36,8,16.36,22.75C212.34,80.6,216.68,82.61,216.68,86Z"/><polygon class="cls-3" points="174.83 145.05 168.85 148.28 168.85 116.32 174.83 116.32 174.83 145.05"/><path class="cls-3" d="M237.44,123.29c0,10.8-15.9,19.76-34.08,19.76s-32.92-8.75-32.92-19.55S185.18,104,203.36,104,237.44,112.49,237.44,123.29Z"/><path class="cls-3" d="M170.44,125.56c0,10-13.88,17.29-29.19,17.29S112,134.72,112,124.7s13.93-18.16,29.25-18.16S170.44,115.53,170.44,125.56Z"/><rect class="cls-4" x="145.71" y="195.72" width="48.68" height="120.1"/><polygon class="cls-5" points="48.35 89.19 110.2 127.09 126.97 142.25 150.5 137.07 168.05 147.44 211.54 193.32 199.57 206.49 178.82 220.85 130.15 189.73 35.5 131.85 48.35 89.19"/><path class="cls-6" d="M136.53,188.14c.17-1.79-8.78,12-8.78,12l10,10,9.17,8s3.41-1.57,5.59-.4c2.58,1.39,4.23,5.47,7.58,4,4.39-1.94,11.74-14.45,11.15-14.43s-7.11-2.1-6.33-3.55c3-5.56-12.69-14.87-18.15-15.22-2.89-.18-5.41-4.4-5.42-3.9C141.29,185.74,136.53,188.14,136.53,188.14Z"/><path class="cls-6" d="M301.31,131.48,286.15,94.37,240.27,121.9l-24.34,20.35s-.7-1.36-8.38-3.19-24.74,2-24.74,2l-14.36,8.77L156.88,163l1.2,18.35,8.37.8.8-15.16,8-7.58s6.29-3.59,6.39-.8,23.78,29.69,29.12,29.53C215.8,188,301.31,131.48,301.31,131.48Z"/><line class="cls-7" x1="199.57" y1="206.49" x2="199.57" y2="325.39"/><line class="cls-8" x1="110.4" y1="126.89" x2="44.96" y2="90.18"/><line class="cls-7" x1="316.68" y1="125.69" x2="211.34" y2="193.12"/><line class="cls-7" x1="25.41" y1="132.88" x2="130.35" y2="193.12"/><line class="cls-7" x1="141.72" y1="211.68" x2="141.72" y2="326.59"/><line class="cls-7" x1="52.54" y1="89.79" x2="111.59" y2="122.9"/><line class="cls-7" x1="239.27" y1="117.71" x2="283.96" y2="90.18"/><line class="cls-8" x1="240.07" y1="122.1" x2="287.55" y2="92.98"/><line class="cls-8" x1="145.91" y1="217.86" x2="145.63" y2="331.18"/><line class="cls-8" x1="195.38" y1="207.49" x2="195.45" y2="328.78"/><line class="cls-8" x1="208.95" y1="189.53" x2="307.5" y2="127.29"/><line class="cls-8" x1="133.14" y1="190.33" x2="28.2" y2="129.29"/><line class="cls-2" x1="184.87" y1="123.89" x2="194.13" y2="103.99"/><line class="cls-2" x1="194.13" y1="123.98" x2="209.67" y2="104.44"/><line class="cls-2" x1="209.67" y1="123.29" x2="220.43" y2="107.7"/><line class="cls-2" x1="222.15" y1="122.73" x2="228.22" y2="111.72"/><line class="cls-2" x1="222.15" y1="122.73" x2="229.57" y2="132.71"/><line class="cls-2" x1="209.67" y1="123.29" x2="219.42" y2="139.21"/><line class="cls-2" x1="194.13" y1="123.98" x2="201.21" y2="136.64"/><line class="cls-2" x1="184.87" y1="123.89" x2="189.4" y2="138.29"/><line class="cls-2" x1="155.28" y1="124.9" x2="148.21" y2="105.99"/><line class="cls-2" x1="143.1" y1="124.9" x2="139.04" y2="105.74"/><line class="cls-2" x1="131.46" y1="124.9" x2="122.1" y2="112.76"/><line class="cls-2" x1="131.46" y1="124.9" x2="122.1" y2="138.54"/><line class="cls-2" x1="143.1" y1="124.9" x2="132.77" y2="140.71"/><line class="cls-2" x1="187.77" y1="105.52" x2="188.99" y2="105.8"/><path class="cls-9" d="M242,122.5a1.75,1.75,0,0,0,.1-.64s0,0,0,0a.29.29,0,0,1,0-.1,1.49,1.49,0,0,0-.24-.72,1.39,1.39,0,0,0-.11-.21,55.07,55.07,0,0,0-28.81-17.53,16.07,16.07,0,0,0,5.5-11.89c0-6.93-4.41-11.56-6.56-13.4a14.39,14.39,0,0,0,1.08-5c.16-5-2.22-9.9-6.52-13.58a21.15,21.15,0,0,0-10.63-4.52s0-.08,0-.13A22.48,22.48,0,0,0,176,43.7c-10.08,0-15.58,4.82-17.89,7.55a11,11,0,0,0-4.87-2.17c-4.87-.84-10,1.45-13.83,6.12a24.07,24.07,0,0,0-5.05,17.94c-5.1,3.26-9.84,8.63-9.84,17.31a26.62,26.62,0,0,0,5.27,15.85c-12.7,5.26-21,16.93-21.46,17.56a1.74,1.74,0,0,0-.14.27.41.41,0,0,0-.05.09,1.62,1.62,0,0,0-.12.61.25.25,0,0,0,0,.07s0,0,0,.07a1.61,1.61,0,0,0,.11.61v0h0a34.52,34.52,0,0,0,16.23,16.28,15.72,15.72,0,0,0,6,2c6.42.1,11.44-3.52,17-3.52,11.43,0,17.16,5.85,17.25,5.94l3.81,3.81a1.78,1.78,0,0,0,1.28.53,1.81,1.81,0,0,0,1.28-3.09l-.86-.87v-27.8a.9.9,0,0,1,1.79,0v26.46a1.82,1.82,0,0,0,3.63,0v-7.45a23,23,0,0,0,4.89,4,1.82,1.82,0,1,0,1.89-3.1,17.38,17.38,0,0,1-6.78-7.08v-5l8.21-.36,3.95,12.57a1.83,1.83,0,0,0,1.74,1.27A2,2,0,0,0,190,140a1.82,1.82,0,0,0,1.19-2.28l-3.67-11.65,5.63-.25,6.53,11.67a1.8,1.8,0,0,0,1.58.93,1.75,1.75,0,0,0,.88-.23,1.81,1.81,0,0,0,.7-2.47l-5.64-10.08,11.54-.52,8.13,13.27-1.39.62a1.81,1.81,0,0,0,.7,3.49,1.89,1.89,0,0,0,.69-.14c1.2-.5,2.34-1,3.46-1.6l.09,0h0A63.1,63.1,0,0,0,241.76,123a1.83,1.83,0,0,0,.14-.28A1.63,1.63,0,0,0,242,122.5Zm-54.46,0,7.87-16.89a16.63,16.63,0,0,1,3.33-.36,54.3,54.3,0,0,1,7.6.53l-13.11,16.47ZM158.45,60.94a10.38,10.38,0,0,1,1.43-1,14.16,14.16,0,0,0,8.89,5.38,12.28,12.28,0,0,0,1.82.13,17.52,17.52,0,0,0,9.82-3.5,28.27,28.27,0,0,1-6.17,8.16,7.17,7.17,0,0,1-5.4,2.14c-5-.18-10.15-4.87-11.8-6.52.11-.92.23-1.86.39-2.82A4.32,4.32,0,0,1,158.45,60.94Zm6-1.5a7.87,7.87,0,0,1,6.95-3.72c2.82,0,4.22,2.21,4.93,4.48a11.62,11.62,0,0,1-7,1.53A9.71,9.71,0,0,1,164.44,59.44Zm-7.7,10.91c2.8,2.35,7.26,5.34,12,5.51a10.76,10.76,0,0,0,8.05-3.14c6.16-5.9,8-11,8.48-13.75a8.8,8.8,0,0,1,5,2.31,5.09,5.09,0,0,1,1.19,4.08c-.35,4-5.06,13.28-13.18,17.23-6.27,3-13.08,2.29-20.24-2.22A35.39,35.39,0,0,1,156.74,70.35ZM170.39,88a21.32,21.32,0,0,0,9.39-2.18c9-4.39,14.56-14.29,15.18-19.93,3.24,2.65,8.46,8.58,8.46,19.39,0,7.84-2.46,13.51-7.09,16.41l0,0a22.79,22.79,0,0,0-2.69.52l-.14,0a31.71,31.71,0,0,0-4.63,1.6l-.66-.16a.34.34,0,0,1-.1,0,.45.45,0,0,0-.11,0c-.16,0-16.45-2-25.38-13.87a29,29,0,0,1-2.65-4.28A24.87,24.87,0,0,0,170.39,88Zm40,18.42a53.21,53.21,0,0,1,7.22,2.14l-8.92,12.93L198,122ZM221,110c1.69.76,3.27,1.57,4.72,2.4L221.05,121l-7.81.35Zm7.81,4.32a54.74,54.74,0,0,1,7.43,6l-11,.5ZM214.78,91.39A12.61,12.61,0,0,1,208,102.3a61.35,61.35,0,0,0-6.13-.63c2.78-3.18,5.13-8.26,5.13-16.36,0-.33,0-.62,0-.94a17.9,17.9,0,0,0,3-3.15A14.24,14.24,0,0,1,214.78,91.39Zm-5.48-18.5a11,11,0,0,1-2.72,6.83c-2-12.43-10.46-17.65-12.24-18.61a7.89,7.89,0,0,0-1.46-2.26,7.73,7.73,0,0,0-.64-.64c3.93.2,8.49,1.13,11.81,4S209.43,69.05,209.3,72.89ZM176,47.33a19,19,0,0,1,15.22,7.2,39,39,0,0,0-8,.67c-.05,0-.08,0-.12,0l-.19,0-.1.07-.05,0a2.2,2.2,0,0,0-.3.19.83.83,0,0,0-.12.08,35.44,35.44,0,0,1-2.93,2.51c-1.52-3.89-4.34-6.09-8-6.09a11.37,11.37,0,0,0-9.4,4.52,12.5,12.5,0,0,0-1.39-2.7C162.21,51.87,166.82,47.33,176,47.33ZM142.21,57.48c2.95-3.63,6.84-5.44,10.4-4.82A7.31,7.31,0,0,1,156.9,55l.06.06a8.26,8.26,0,0,1,1.14,1.66A14.48,14.48,0,0,0,156,58.23a7.29,7.29,0,0,0-1.93,3.12,30.31,30.31,0,0,0-8.18,7.19,36.44,36.44,0,0,0-8.1,2.69A20.43,20.43,0,0,1,142.21,57.48Zm-14.07,33c0-6.45,3.13-11.5,9.3-15A30,30,0,0,1,143.05,73a25.5,25.5,0,0,0-1.92,4.86c-2.17,7.86-.58,16.6,4.72,26-1.23-.1-2.51-.16-3.85-.16a30.81,30.81,0,0,0-8.62,1.26A23.35,23.35,0,0,1,128.14,90.45Zm31.24,48.47a31.5,31.5,0,0,0-9-2l5.93-10.16h10.13v4.94a17.34,17.34,0,0,1-7.07,7.26Zm-22.87-.62,7.57-11.59h8l-5.87,10A44.29,44.29,0,0,0,136.51,138.3Zm-6.82,2-.49-.22a32.89,32.89,0,0,1-4.5-2.1l7.72-11.25h7.33l-8.5,13s0,.07,0,.1Zm7.93-32.51,3.24,15.32h-8.51l-7.65-9.93A34,34,0,0,1,137.62,107.77Zm9.28-.11,5.77,15.43h-8.1l-3.32-15.68.75,0A44.41,44.41,0,0,1,146.9,107.66Zm19.56,11.21v4.22h-9.92L151,108.34c9.41,2.08,14.17,7,15.43,8.46Zm-44.71-3.59,6,7.81H113.58A58.13,58.13,0,0,1,121.75,115.28Zm-8.92,11.43H128l-6.4,9.32A32.51,32.51,0,0,1,112.83,126.71Zm50.34,14a22.55,22.55,0,0,0,3.29-2.88v5.21A21.7,21.7,0,0,0,163.17,140.76ZM171,114.35a4.57,4.57,0,0,0-1.58.3c-1.42-1.72-7.25-7.94-19-10.12-5.92-9.48-7.88-18.1-5.82-25.63a24.73,24.73,0,0,1,8.71-12.61,41,41,0,0,0,1.29,15.51,1.7,1.7,0,0,0,.1.32,31.74,31.74,0,0,0,5,9.94c7.12,9.44,18,13.15,23.87,14.52a68.6,68.6,0,0,0-11,8.09A4.49,4.49,0,0,0,171,114.35Zm4.53,4.52V117c1.89-1.69,8.26-7.06,15.2-9.92l-7.26,15.6-7.94.35Zm37.32,6.1,8.44-.38,5.78,7.77a58,58,0,0,1-7,4.45Zm17.06,5.13-4.25-5.71,10.64-.47A64.77,64.77,0,0,1,229.89,130.1Z"/><path class="cls-9" d="M205.07,181.63l-.5-.48L180.8,157.38a1.81,1.81,0,1,0-2.57,2.56L202,183.72l.52.51c1.86,1.82,6.82,6.67,6.84,10.32a3.08,3.08,0,0,1-1,2.3,4.46,4.46,0,0,1-3.18,1.43c-2.51,0-4.85-2.17-5.36-2.66-1-1.09-2.1-2-2.92-2.75l-.84-.76-7.84-7.84-2.56,2.56,7.84,7.84c.22.22.56.53,1,.92,1.69,1.49,5.65,5,5.73,7.62a2.26,2.26,0,0,1-.77,1.76,3.35,3.35,0,0,1-2.61,1.18c-1.87-.08-3.75-1.89-4.32-2.57h0a19.52,19.52,0,0,0-1.76-2l-9.43-9.44-2.57,2.56,9.43,9.44a9.71,9.71,0,0,1,2.77,4.16,3.28,3.28,0,0,1-1.12,3.33c-1.79,1.78-4.45.49-5.35,0a10.53,10.53,0,0,0-1.59-2.08c-2.2-2.2-7.82-8.53-7.87-8.59a1.81,1.81,0,1,0-2.71,2.41c.23.26,5.74,6.47,8,8.74a6.11,6.11,0,0,1,1.75,3.22,3.36,3.36,0,0,1-1,3.06,1.84,1.84,0,0,1-1.31.52c-1.22,0-4.08-.88-9.58-6.55a1.81,1.81,0,0,0-2.61,2.52c5,5.13,9,7.63,12.16,7.65h.05a5.33,5.33,0,0,0,3.86-1.58,7,7,0,0,0,2.12-5,8.88,8.88,0,0,0,1.88.21,6.58,6.58,0,0,0,4.79-2,7.19,7.19,0,0,0,2.27-4.8,7.12,7.12,0,0,0,2,.42H197a7.1,7.1,0,0,0,5-2.24,5.91,5.91,0,0,0,1.83-4.44,7,7,0,0,0-.2-1.35,8.82,8.82,0,0,0,1.46.16h.12a7.88,7.88,0,0,0,5.69-2.49,6.65,6.65,0,0,0,2.05-4.89C213,189.37,207.43,184,205.07,181.63Z"/><path class="cls-9" d="M167.44,202.85a6.65,6.65,0,0,0-1.65.24,15.18,15.18,0,0,0,.66-1.64,8.91,8.91,0,0,0,.45-2.63,6.65,6.65,0,0,0-2-4.86,5.48,5.48,0,0,0-4-1.68,7.55,7.55,0,0,0-2.89.64,6.31,6.31,0,0,0-2.16-4.46c-2.89-2.67-6.23-1.79-9.11,0a3.77,3.77,0,0,0,0-.47,5.12,5.12,0,0,0-1.59-3.74,4.65,4.65,0,0,0-3.25-1.34c-3.06,0-5.92,2.88-8.22,5.19l-.45.46a35.1,35.1,0,0,0-5.15,6.38c-2.75,4.61-1.66,7.24-.27,8.64a5,5,0,0,0,3.54,1.52,5.62,5.62,0,0,0,1.8-.34c-.65,2.34-.44,4.57,1.32,6.33a6.47,6.47,0,0,0,4.67,2,7.41,7.41,0,0,0,2-.3,5.89,5.89,0,0,0,1.63,5.25,5.83,5.83,0,0,0,4.22,1.81h0a9.57,9.57,0,0,0,5.3-2,5.58,5.58,0,0,0,1.15,5.09,4.4,4.4,0,0,0,3.44,1.54h0c5.32,0,12.59-8.14,14.71-13.41,1.49-3.71.53-5.7-.53-6.71A5.21,5.21,0,0,0,167.44,202.85Zm-37-1.85c-.93-.92.11-3,.82-4.22a31.56,31.56,0,0,1,4.59-5.67l.47-.46c1.53-1.54,4.09-4.12,5.64-4.12a1,1,0,0,1,.75.33,1.54,1.54,0,0,1,.47,1.16c0,2.23-2.68,5.95-5.38,8.65l-.65.66c-1.4,1.44-4,4.13-5.74,4.13A1.27,1.27,0,0,1,130.4,201Zm6.66,7.51c-2.12-2.11,1.83-8,6.68-12.81s7.83-6.26,9.65-4.57c.69.63,2.1,2-.58,5.33-1,.89-2,1.84-2.95,2.8a43.91,43.91,0,0,0-6.7,8.34C141.64,208.88,139,210.48,137.06,208.51Zm8.34,6.93c-2.27-2.27,1.89-8.47,7-13.61.77-.77,1.79-1.79,2.89-2.76.05,0,.11-.07.15-.12l0,0c1.82-1.58,3.86-3,5.41-3a1.85,1.85,0,0,1,1.39.61,3.07,3.07,0,0,1,1,2.29c0,3.55-4.93,8.42-7,10.5l-.51.51c-.26.25-.54.54-.84.85-2,2.06-5.38,5.53-7.84,5.53A2.27,2.27,0,0,1,145.4,215.44Zm22.88-5.75c-2,4.89-8.32,11.13-11.34,11.13a.83.83,0,0,1-.71-.29c-1.38-1.59.94-6,5.64-10.69,2.11-2.11,4.2-3.37,5.57-3.37a1.57,1.57,0,0,1,1.17.48C168.88,207.2,168.89,208.17,168.28,209.69Z"/><path class="cls-9" d="M169.86,37.8A137.94,137.94,0,0,1,267.4,273.29,137.94,137.94,0,0,1,72.32,78.21,137,137,0,0,1,169.86,37.8m0-23.14A161.09,161.09,0,1,0,331,175.75,161.08,161.08,0,0,0,169.86,14.66Z"/><path class="cls-1" d="M105.75,315.24a2.3,2.3,0,0,1-.41-1.07,2.12,2.12,0,0,1,.18-1.16,2.07,2.07,0,0,1,.74-.89,2.36,2.36,0,0,1,1.09-.4,2,2,0,0,1,1.15.18,2.18,2.18,0,0,1,.91.74,2.49,2.49,0,0,1,.43,1.1,2.18,2.18,0,0,1-.92,2,2.31,2.31,0,0,1-1.1.41,2.25,2.25,0,0,1-1.16-.2A2.21,2.21,0,0,1,105.75,315.24Z"/><path class="cls-1" d="M125.15,325.54l6.78,1.91-.47,1.67-8.74-2.48,3.91-13.82,8.64,2.44-.47,1.67L128.12,315l-1.22,4.31,5.85,1.65-.68,1.56L126.44,321Z"/><path class="cls-1" d="M136.77,330.13a7.67,7.67,0,0,1-2-1.63l1.23-1.25a6.24,6.24,0,0,0,1.78,1.39,7.2,7.2,0,0,0,2,.74,4.28,4.28,0,0,0,2.49-.11,2,2,0,0,0,1.15-1.56,2,2,0,0,0-.09-1.17,2.59,2.59,0,0,0-.8-1,13.84,13.84,0,0,0-1.75-1.16l-.35-.2a16.14,16.14,0,0,1-2-1.38,4,4,0,0,1-1.13-1.49,3.45,3.45,0,0,1-.16-2,3.32,3.32,0,0,1,1.06-1.93,4.05,4.05,0,0,1,2-.91,6.47,6.47,0,0,1,2.4,0,9.11,9.11,0,0,1,2.41.8,8.14,8.14,0,0,1,2.07,1.5l-1.19,1.27a7.87,7.87,0,0,0-1.68-1.24,6.78,6.78,0,0,0-2-.66,3.61,3.61,0,0,0-2,.11,1.65,1.65,0,0,0-1,1.34,1.63,1.63,0,0,0,.07,1,2.49,2.49,0,0,0,.73.91,11.61,11.61,0,0,0,1.59,1.07l.34.2a19.31,19.31,0,0,1,2.15,1.4,4.56,4.56,0,0,1,1.26,1.57,3.61,3.61,0,0,1,.21,2.29,3.83,3.83,0,0,1-1.06,2.11,4,4,0,0,1-2.07,1,7.64,7.64,0,0,1-2.88-.07A9.41,9.41,0,0,1,136.77,330.13Z"/><path class="cls-1" d="M160.68,319.17l-.18,1.77-4.94-.51L154.27,333l-2-.21,1.29-12.53-5-.51.19-1.77Z"/><path class="cls-1" d="M177.62,331.79l0,1.73-9.38.23,0-1L169,332c1.71-1.82,3-3.17,3.74-4.07a16.23,16.23,0,0,0,1.81-2.46,4,4,0,0,0,.62-2.1,2.59,2.59,0,0,0-.69-1.88,2.45,2.45,0,0,0-1.83-.61,4.71,4.71,0,0,0-1.9.47,7.52,7.52,0,0,0-1.72,1.13L168,321.18a7.39,7.39,0,0,1,2.24-1.56,6.75,6.75,0,0,1,2.7-.62,4.92,4.92,0,0,1,2.22.43,3.76,3.76,0,0,1,1.58,1.37,4,4,0,0,1,.62,2.12,5.62,5.62,0,0,1-.56,2.58,12.66,12.66,0,0,1-1.77,2.7c-.79.95-1.93,2.19-3.41,3.74Z"/><path class="cls-1" d="M182.46,331.48a9.69,9.69,0,0,1-1.83-5.38,10.58,10.58,0,0,1,.37-4.46,4.86,4.86,0,0,1,4.34-3.49,4.38,4.38,0,0,1,2.85.61,5.4,5.4,0,0,1,2,2.37,12,12,0,0,1,1,4,10.6,10.6,0,0,1-.34,4.47,4.87,4.87,0,0,1-1.74,2.5,5.44,5.44,0,0,1-2.61.91A4.34,4.34,0,0,1,182.46,331.48Zm5.7-.92a3.68,3.68,0,0,0,.87-2,13.06,13.06,0,0,0,0-3.3,9.29,9.29,0,0,0-1.21-4.25,2.53,2.53,0,0,0-2.45-1.22,2.65,2.65,0,0,0-2.3,1.65,12.18,12.18,0,0,0,.8,8.67,2.57,2.57,0,0,0,2.5,1.17A2.72,2.72,0,0,0,188.16,330.56Z"/><path class="cls-1" d="M203.62,328.22l.33,1.7-9.21,1.78-.18-1,.63-.93q2.09-3.12,3-4.63a15.9,15.9,0,0,0,1.38-2.73,4.08,4.08,0,0,0,.27-2.17,2.56,2.56,0,0,0-1-1.74,2.4,2.4,0,0,0-1.9-.3,4.62,4.62,0,0,0-1.8.78,7.16,7.16,0,0,0-1.51,1.4l-1.31-1.06a7.35,7.35,0,0,1,1.94-1.91,6.86,6.86,0,0,1,2.56-1.06,4.76,4.76,0,0,1,2.26.06,3.63,3.63,0,0,1,1.79,1.08,4.09,4.09,0,0,1,1,2,5.75,5.75,0,0,1-.13,2.63,12.4,12.4,0,0,1-1.3,2.95q-.93,1.61-2.74,4.26Z"/><path class="cls-1" d="M213.49,325.61l2.92-.82.47,1.66-8.57,2.43-.48-1.67,3.7-1-2.85-10.05-2.63,2.66-1.13-.95,3.16-3.82,2-.56Z"/><path class="cls-1" d="M231.42,316.08a2.36,2.36,0,0,1-1.09-.4,2.25,2.25,0,0,1-.74-.9,2.06,2.06,0,0,1-.18-1.14,2.39,2.39,0,0,1,.42-1.09,2.23,2.23,0,0,1,.89-.75,2.29,2.29,0,0,1,1.16-.18,2.4,2.4,0,0,1,1.11.4,2.19,2.19,0,0,1,.74.88,2.16,2.16,0,0,1,.17,1.15,2.22,2.22,0,0,1-1.33,1.83A2.12,2.12,0,0,1,231.42,316.08Z"/><path class="cls-1" d="M20.46,215.06q1.09-2.34,4.72-3.39a7.6,7.6,0,0,1,4.14-.18,6,6,0,0,1,3.06,2,10.47,10.47,0,0,1,1.91,3.79l1.1,3.79-13.8,4-1.21-4.15A8.23,8.23,0,0,1,20.46,215.06ZM31.34,215a3.88,3.88,0,0,0-2.17-1.5,6.41,6.41,0,0,0-3.4.23,5.66,5.66,0,0,0-3.6,2.41,5.48,5.48,0,0,0-.14,4.27l.65,2.23,10.48-3.05L32.69,218A9.76,9.76,0,0,0,31.34,215Z"/><path class="cls-1" d="M29.4,205l-1.31-6.92,1.7-.32,1.69,8.93-14.12,2.67-1.67-8.83,1.7-.32,1.29,6.82,4.4-.83-1.13-6,1.7-.1,1.09,5.76Z"/><path class="cls-1" d="M13.78,181.31l14.33-1.14.15,2-11,.87a15.81,15.81,0,0,1,2.06.71l7,2.92.16,2L20,192.53c-.35.23-.69.44-1,.63s-.62.36-.86.48l11-.87.15,1.95-14.32,1.13-.19-2.32,6.07-3.73a33.34,33.34,0,0,1,3.73-2.05,15.18,15.18,0,0,1-1.75-.54q-1-.36-2.25-.9L14,183.56Z"/><path class="cls-1" d="M27.52,174.16a5.89,5.89,0,0,1-2.71,2.17,9.63,9.63,0,0,1-3.95.61,8.37,8.37,0,0,1-4.11-1.1,5.91,5.91,0,0,1-2.36-2.58,7.52,7.52,0,0,1-.67-3.46,6.79,6.79,0,0,1,1.09-3.62A5.91,5.91,0,0,1,17.53,164a9.47,9.47,0,0,1,3.95-.61,8.43,8.43,0,0,1,4.11,1.1A5.91,5.91,0,0,1,28,167.08a7.39,7.39,0,0,1,.66,3.46A6.79,6.79,0,0,1,27.52,174.16Zm-1.25-6.34a4.4,4.4,0,0,0-1.93-1.65,7.75,7.75,0,0,0-2.92-.64,8.54,8.54,0,0,0-3.05.38,4.35,4.35,0,0,0-2.08,1.44,4.23,4.23,0,0,0-.84,2.52,4.58,4.58,0,0,0,.62,2.65A4.32,4.32,0,0,0,18,174.17a7.85,7.85,0,0,0,2.93.64,8.48,8.48,0,0,0,3-.38,4.07,4.07,0,0,0,2.92-4A4.56,4.56,0,0,0,26.27,167.82Z"/><path class="cls-1" d="M28.65,158.51a5.44,5.44,0,0,1-2.85,1.83,9.86,9.86,0,0,1-4,.17A9,9,0,0,1,17.69,159a5.81,5.81,0,0,1-2.08-2.72,7,7,0,0,1-.3-3.34,8.86,8.86,0,0,1,.67-2.42,9.19,9.19,0,0,1,1.27-2l1.42,1.1a6.88,6.88,0,0,0-1.6,3.51,4,4,0,0,0,1,3.58A6.83,6.83,0,0,0,22,158.34a6.86,6.86,0,0,0,4.34-.55,4,4,0,0,0,2-3.15,6.74,6.74,0,0,0,0-2.06,8.48,8.48,0,0,0-.56-1.92l1.59-.6a11.1,11.1,0,0,1,.71,2.42,8,8,0,0,1,0,2.49A7,7,0,0,1,28.65,158.51Z"/><path class="cls-1" d="M33.29,137.5l.13,0-.54,2.28-6.41,2.75L26,144.63l5.46,1.29-.47,2L17,144.6l1.07-4.55a6.91,6.91,0,0,1,1.17-2.65A3.92,3.92,0,0,1,21.08,136a4.25,4.25,0,0,1,2.3-.06,4.65,4.65,0,0,1,1.74.81,4.13,4.13,0,0,1,1.19,1.48,4.91,4.91,0,0,1,.45,2.09Zm-8.95,6.74.53-2.26a3.78,3.78,0,0,0-.12-2.62,2.54,2.54,0,0,0-1.78-1.3,2.37,2.37,0,0,0-2,.33,3.51,3.51,0,0,0-1.19,2.1L19.14,143Z"/><path class="cls-1" d="M22.62,124.46,37.84,124l.13,0-.69,2-4.37.09-2,5.79,3.4,2.74-.66,1.93-.12,0-11.73-9.71Zm6.92,6.3,1.57-4.62L24,126.3Z"/><path class="cls-1" d="M29.21,108.29l1.63.71-2,4.55,11.54,5-.81,1.87-11.55-5-2,4.57-1.63-.7Z"/><path class="cls-1" d="M43.63,111.82,30.88,105.2l.94-1.81L44.57,110Z"/><path class="cls-1" d="M47,104.37a5.54,5.54,0,0,1-3.34.55,9.94,9.94,0,0,1-3.73-1.42,8.81,8.81,0,0,1-3.19-3,5.71,5.71,0,0,1-.84-3.32,7.08,7.08,0,0,1,1-3.18,9,9,0,0,1,1.58-2,8.75,8.75,0,0,1,2-1.36l.87,1.56a6.92,6.92,0,0,0-2.86,2.6A3.94,3.94,0,0,0,38,98.51a6.82,6.82,0,0,0,2.93,3.07,6.92,6.92,0,0,0,4.2,1.21,4,4,0,0,0,3.07-2.11A6.65,6.65,0,0,0,49,98.79a9.57,9.57,0,0,0,.25-2l1.69.07a10.77,10.77,0,0,1-.3,2.5,8,8,0,0,1-1,2.3A7,7,0,0,1,47,104.37Z"/><path class="cls-1" d="M57.24,89.89a7.5,7.5,0,0,1-2.39,1l-.53-1.68a6.13,6.13,0,0,0,2.06-.92A7.68,7.68,0,0,0,58,86.9,4.35,4.35,0,0,0,59,84.64a2,2,0,0,0-.85-1.74,2,2,0,0,0-1.07-.48,2.68,2.68,0,0,0-1.24.26,13.62,13.62,0,0,0-1.85,1l-.33.21a15.43,15.43,0,0,1-2.17,1.16,4,4,0,0,1-1.85.3,3.31,3.31,0,0,1-1.86-.8,3.24,3.24,0,0,1-1.21-1.84,4.11,4.11,0,0,1,.12-2.19,6.61,6.61,0,0,1,1.15-2.11,9.24,9.24,0,0,1,1.84-1.76A8.16,8.16,0,0,1,52,75.53l.56,1.64a8.22,8.22,0,0,0-1.88.91A7,7,0,0,0,49.2,79.5a3.6,3.6,0,0,0-.84,1.83,1.66,1.66,0,0,0,.69,1.55,1.71,1.71,0,0,0,.89.38A2.46,2.46,0,0,0,51.08,83a11.13,11.13,0,0,0,1.69-.9l.34-.21a18.56,18.56,0,0,1,2.24-1.25,4.52,4.52,0,0,1,2-.38,3.57,3.57,0,0,1,2.12.88,3.84,3.84,0,0,1,1.37,1.92,3.89,3.89,0,0,1-.06,2.31,7.62,7.62,0,0,1-1.4,2.52A9.26,9.26,0,0,1,57.24,89.89Z"/><path class="cls-1" d="M65.37,79.42a5.9,5.9,0,0,1-3.47-.21A9.45,9.45,0,0,1,58.56,77a8.3,8.3,0,0,1-2.32-3.56,6,6,0,0,1,0-3.5A7.37,7.37,0,0,1,58,67a6.76,6.76,0,0,1,3.23-2,5.9,5.9,0,0,1,3.47.21,9.36,9.36,0,0,1,3.34,2.19,8.36,8.36,0,0,1,2.32,3.56,5.89,5.89,0,0,1,0,3.5,7.47,7.47,0,0,1-1.82,3A6.74,6.74,0,0,1,65.37,79.42Zm3.31-5.55a4.43,4.43,0,0,0-.33-2.52,7.74,7.74,0,0,0-1.75-2.43,8.3,8.3,0,0,0-2.51-1.75,4.27,4.27,0,0,0-2.51-.33,4.2,4.2,0,0,0-2.31,1.31A4.6,4.6,0,0,0,58,70.54a4.4,4.4,0,0,0,.33,2.51A7.52,7.52,0,0,0,60,75.48a8.34,8.34,0,0,0,2.51,1.76,4.43,4.43,0,0,0,2.51.33,4.28,4.28,0,0,0,2.31-1.32A4.61,4.61,0,0,0,68.68,73.87Z"/><path class="cls-1" d="M76.66,68.56A5.5,5.5,0,0,1,73.32,68a9.8,9.8,0,0,1-3.08-2.55,8.85,8.85,0,0,1-2-3.88,5.74,5.74,0,0,1,.28-3.41,7,7,0,0,1,2-2.68,8.64,8.64,0,0,1,4.43-2l.32,1.76a6.86,6.86,0,0,0-3.54,1.55A3.94,3.94,0,0,0,70,60.13a8.27,8.27,0,0,0,5.39,6.34,4,4,0,0,0,3.58-1,6.51,6.51,0,0,0,1.38-1.53,9.39,9.39,0,0,0,.87-1.8l1.58.61A11.49,11.49,0,0,1,81.75,65a8.23,8.23,0,0,1-1.67,1.86A6.93,6.93,0,0,1,76.66,68.56Z"/><path class="cls-1" d="M85.61,62.22l-8.48-11.6,1.65-1.21L87.26,61Z"/><path class="cls-1" d="M88.24,43.1l12.13,9.2.07.11-1.8,1.13-3.45-2.68L90,54.11l.92,4.27-1.73,1.08-.07-.11-3-14.93Zm1.4,9.25,4.13-2.59-5.6-4.34Z"/><path class="cls-1" d="M103.64,48.82l6.29-3.18.8,1.58-8.11,4.11L96.13,38.51l1.81-.92Z"/><path class="cls-1" d="M113.11,46.25l-5.68-13.2,1.88-.81L115,45.45Z"/><path class="cls-1" d="M119.65,43.37a7.75,7.75,0,0,1-2.58-.37l.43-1.71a5.94,5.94,0,0,0,2.23.3,7.14,7.14,0,0,0,2.11-.38,4.23,4.23,0,0,0,2.1-1.36,2.27,2.27,0,0,0-.46-2.89,2.77,2.77,0,0,0-1.19-.44,14.53,14.53,0,0,0-2.1-.11h-.4a16.41,16.41,0,0,1-2.45-.15,4.08,4.08,0,0,1-1.74-.72,3.33,3.33,0,0,1-1.15-1.66,3.28,3.28,0,0,1-.07-2.2,4.11,4.11,0,0,1,1.26-1.8,6.61,6.61,0,0,1,2.09-1.19,9.41,9.41,0,0,1,2.49-.53,8.31,8.31,0,0,1,2.54.25l-.38,1.69a7.85,7.85,0,0,0-2.08-.21,7.15,7.15,0,0,0-2,.42,3.61,3.61,0,0,0-1.67,1.11,1.65,1.65,0,0,0-.23,1.68,1.69,1.69,0,0,0,.55.79,2.46,2.46,0,0,0,1.09.42,12.05,12.05,0,0,0,1.91.12h.4a20.28,20.28,0,0,1,2.56.11,4.37,4.37,0,0,1,1.88.73,3.55,3.55,0,0,1,1.34,1.86,3.81,3.81,0,0,1,.16,2.36A4,4,0,0,1,125,41.42a7.69,7.69,0,0,1-2.51,1.4A9.32,9.32,0,0,1,119.65,43.37Z"/><path class="cls-1" d="M136.8,23.42l.44,1.72-4.81,1.24,3.15,12.2-2,.51-3.14-12.2-4.83,1.24-.44-1.72Z"/><path class="cls-1" d="M150.46,35A5.45,5.45,0,0,1,148,32.74a9.77,9.77,0,0,1-1.19-3.81,8.89,8.89,0,0,1,.41-4.37,5.76,5.76,0,0,1,2.09-2.71,7.21,7.21,0,0,1,3.15-1.15,9.1,9.1,0,0,1,2.51,0,8.56,8.56,0,0,1,2.29.71l-.7,1.64a6.81,6.81,0,0,0-3.8-.63,3.89,3.89,0,0,0-3.2,1.9,6.78,6.78,0,0,0-.6,4.2,6.86,6.86,0,0,0,1.64,4.05,4,4,0,0,0,3.56,1.11,6.6,6.6,0,0,0,2-.53,8.77,8.77,0,0,0,1.7-1l1,1.38a11.44,11.44,0,0,1-2.16,1.31,8.36,8.36,0,0,1-2.41.65A7,7,0,0,1,150.46,35Z"/><path class="cls-1" d="M167.36,20l5.74,14.11v.13l-2.13,0-1.6-4.06-6.12.15-1.39,4.13-2,0v-.13l5-14.36Zm-3.52,8.68,4.88-.12-2.6-6.6Z"/><path class="cls-1" d="M177.25,34a4.76,4.76,0,0,1-1.81-2.28,7.1,7.1,0,0,1-.41-3.13l.63-8.61,2,.15-.6,8.17q-.34,4.67,3.68,5a3.53,3.53,0,0,0,3.06-1A5.37,5.37,0,0,0,185,29l.61-8.29,2,.15L187,29.4a6.74,6.74,0,0,1-1,3.41,4.7,4.7,0,0,1-2.3,1.82,7.64,7.64,0,0,1-3.15.39A6.55,6.55,0,0,1,177.25,34Z"/><path class="cls-1" d="M192.24,35.43a5.51,5.51,0,0,1-1.74-2.92,9.85,9.85,0,0,1,0-4,8.73,8.73,0,0,1,1.64-4.07,5.72,5.72,0,0,1,2.79-2,6.94,6.94,0,0,1,3.34-.19,8.43,8.43,0,0,1,4.38,2.09l-1.14,1.37A6.77,6.77,0,0,0,198,24a3.92,3.92,0,0,0-3.61.9,6.83,6.83,0,0,0-1.78,3.85,6.85,6.85,0,0,0,.41,4.35,4,4,0,0,0,3.08,2.09,6.9,6.9,0,0,0,2.06.07,9,9,0,0,0,1.93-.5l.55,1.61a12,12,0,0,1-2.44.63,8.42,8.42,0,0,1-2.49-.07A7.07,7.07,0,0,1,192.24,35.43Z"/><path class="cls-1" d="M205.06,38.16a4.78,4.78,0,0,1-1.32-2.59,7.13,7.13,0,0,1,.21-3.15l2.31-8.31,2,.54L206,32.54q-1.26,4.5,2.63,5.59a3.52,3.52,0,0,0,3.19-.35,5.31,5.31,0,0,0,1.79-3l2.23-8,2,.55-2.3,8.25a6.85,6.85,0,0,1-1.7,3.13A4.82,4.82,0,0,1,211.23,40a7.58,7.58,0,0,1-3.17-.24A6.65,6.65,0,0,1,205.06,38.16Z"/><path class="cls-1" d="M218.4,42.61a7.69,7.69,0,0,1-1.72-2l1.44-1a6.34,6.34,0,0,0,1.5,1.69,7.23,7.23,0,0,0,1.85,1.08,4.19,4.19,0,0,0,2.47.34,2,2,0,0,0,1.41-1.33,2,2,0,0,0,.13-1.16,2.73,2.73,0,0,0-.62-1.11,13.8,13.8,0,0,0-1.52-1.46l-.3-.26a15.36,15.36,0,0,1-1.76-1.71,4,4,0,0,1-.85-1.67,3.45,3.45,0,0,1,.21-2A3.28,3.28,0,0,1,222,30.32a4.06,4.06,0,0,1,2.12-.54,6.65,6.65,0,0,1,2.37.46,9.3,9.3,0,0,1,2.22,1.22,8,8,0,0,1,1.77,1.85l-1.4,1a7.5,7.5,0,0,0-1.43-1.52,7,7,0,0,0-1.8-1,3.52,3.52,0,0,0-2-.25,1.65,1.65,0,0,0-1.27,1.12,1.69,1.69,0,0,0-.09,1,2.43,2.43,0,0,0,.55,1A12.64,12.64,0,0,0,224.44,36l.31.26A18.59,18.59,0,0,1,226.61,38a4.43,4.43,0,0,1,.95,1.78,3.57,3.57,0,0,1-.19,2.29A3.85,3.85,0,0,1,226,44a4,4,0,0,1-2.22.64,7.52,7.52,0,0,1-2.82-.58A8.77,8.77,0,0,1,218.4,42.61Z"/><path class="cls-1" d="M246.9,51.64a2.28,2.28,0,0,1-.26-1.12A2.16,2.16,0,0,1,247,49.4a2,2,0,0,1,.85-.77,2.37,2.37,0,0,1,1.14-.25,2.18,2.18,0,0,1,1.91,1.19,2.47,2.47,0,0,1,.28,1.15A2.15,2.15,0,0,1,250,52.6a2.27,2.27,0,0,1-1.14.26,2.32,2.32,0,0,1-1.13-.36A2.2,2.2,0,0,1,246.9,51.64Z"/><path class="cls-1" d="M261.47,66.92a5.53,5.53,0,0,1,0-3.39,9.78,9.78,0,0,1,2-3.44A8.78,8.78,0,0,1,267,57.45a5.78,5.78,0,0,1,3.41-.27,7.13,7.13,0,0,1,3,1.56,8.56,8.56,0,0,1,2.68,4.06l-1.69.59a6.82,6.82,0,0,0-2.08-3.25,3.92,3.92,0,0,0-3.56-1.09,8.24,8.24,0,0,0-5.41,6.32,4,4,0,0,0,1.56,3.38,7.16,7.16,0,0,0,1.73,1.12,9.25,9.25,0,0,0,1.91.57l-.35,1.66a11.65,11.65,0,0,1-2.42-.72,8.12,8.12,0,0,1-2.1-1.35A7.06,7.06,0,0,1,261.47,66.92Z"/><path class="cls-1" d="M269.13,74.75l10.12-10.21L280.7,66l-10.12,10.2Z"/><path class="cls-1" d="M291.15,77.39l-1.33,1.18-3.29-3.73-9.44,8.34-1.35-1.53,9.44-8.34-3.3-3.74,1.34-1.17Z"/><path class="cls-1" d="M300,89.33l-.11.08-10.1.78-4.54,3.3L284,91.84l4.59-3.34,3.88-9.22.11-.08L293.93,81l-3.21,7.31,8-.69Z"/><path class="cls-1" d="M294.29,106.33a6,6,0,0,1,1.26-3.24,9.43,9.43,0,0,1,3.11-2.51,8.36,8.36,0,0,1,4.1-1.12,5.91,5.91,0,0,1,3.34,1.05,7.22,7.22,0,0,1,2.31,2.66,6.74,6.74,0,0,1,.88,3.68,5.93,5.93,0,0,1-1.26,3.23,9.31,9.31,0,0,1-3.11,2.51,8.36,8.36,0,0,1-4.1,1.12,6,6,0,0,1-3.34-1,7.33,7.33,0,0,1-2.31-2.67A6.73,6.73,0,0,1,294.29,106.33Zm4.27,4.85a4.28,4.28,0,0,0,2.49.46,7.46,7.46,0,0,0,2.85-.92,8.43,8.43,0,0,0,2.45-1.85,4.38,4.38,0,0,0,1.08-2.29,4.28,4.28,0,0,0-.55-2.6,4.57,4.57,0,0,0-1.86-2,4.36,4.36,0,0,0-2.49-.46,7.64,7.64,0,0,0-2.85.92,8.45,8.45,0,0,0-2.45,1.86,4.34,4.34,0,0,0-1.08,2.29,4.25,4.25,0,0,0,.55,2.59A4.57,4.57,0,0,0,298.56,111.18Z"/><path class="cls-1" d="M314.87,122.25l-2.63-6.42-4.48,1.84,2.3,5.6-1.68.45-2.22-5.39-5.62,2.3-.77-1.89,13.29-5.45,3.41,8.31Z"/><path class="cls-1" d="M307,136.93a5.48,5.48,0,0,1,1.92-2.79,9.85,9.85,0,0,1,3.61-1.71,8.9,8.9,0,0,1,4.38-.22,5.77,5.77,0,0,1,3,1.7,7,7,0,0,1,1.58,3,8.59,8.59,0,0,1-.06,4.86l-1.73-.46a6.86,6.86,0,0,0,.1-3.86,4,4,0,0,0-2.34-2.9,8.25,8.25,0,0,0-8,2.2,4,4,0,0,0-.6,3.67,6.71,6.71,0,0,0,.8,1.9,8.93,8.93,0,0,0,1.26,1.55L309.66,145a11.62,11.62,0,0,1-1.6-2,8.08,8.08,0,0,1-1-2.29A7,7,0,0,1,307,136.93Z"/><path class="cls-1" d="M324.82,155.14l.32,2L311,159.43l-.32-2,6.37-1-1.25-7.84-6.38,1-.32-2,14.19-2.27.32,2-6.11,1,1.26,7.84Z"/><path class="cls-1" d="M311.23,163.31l14.32-1.17.17,2-14.32,1.18Z"/><path class="cls-1" d="M312.38,171.39a5.52,5.52,0,0,1,2.54-2.25,10.08,10.08,0,0,1,3.91-.78,8.91,8.91,0,0,1,4.31.86,5.71,5.71,0,0,1,2.47,2.36,7,7,0,0,1,.82,3.25,9.08,9.08,0,0,1-.29,2.5,8.88,8.88,0,0,1-.95,2.2l-1.56-.86a6.93,6.93,0,0,0,1-3.72,4,4,0,0,0-1.56-3.38,8.23,8.23,0,0,0-8.32.18,4,4,0,0,0-1.48,3.42,7,7,0,0,0,.32,2,9.54,9.54,0,0,0,.85,1.81l-1.47.84a11.69,11.69,0,0,1-1.08-2.28,7.93,7.93,0,0,1-.39-2.46A7,7,0,0,1,312.38,171.39Z"/><path class="cls-1" d="M325.58,189.77,311,194h-.14l.17-2.12,4.21-1.17.48-6.1-4-1.81.16-2H312l13.77,6.51Zm-8.27-4.39-.38,4.86,6.82-1.9Z"/><path class="cls-1" d="M316.43,208.13l-6.9-1.22a15.16,15.16,0,0,1-.48-2.58,10.85,10.85,0,0,1,.18-2.7,7.16,7.16,0,0,1,1.62-3.67,5.53,5.53,0,0,1,3-1.75,9.94,9.94,0,0,1,3.93,0,8.63,8.63,0,0,1,4,1.66,5.81,5.81,0,0,1,2,2.87,7.55,7.55,0,0,1,.16,3.52,9.61,9.61,0,0,1-.77,2.48,9.07,9.07,0,0,1-1.35,2l-1.37-1.14a8.6,8.6,0,0,0,1.07-1.54,6.61,6.61,0,0,0,.65-2,4.35,4.35,0,0,0-.84-3.87,6.48,6.48,0,0,0-3.84-1.86,7.07,7.07,0,0,0-4.38.35A4.19,4.19,0,0,0,311,202a8.79,8.79,0,0,0,0,3.11l4.11.72.64-3.62,1.66.52Z"/><path class="cls-1" d="M307.89,212.26a5.81,5.81,0,0,1,3.15-1.45,9.34,9.34,0,0,1,4,.36,8.31,8.31,0,0,1,3.72,2.05,5.88,5.88,0,0,1,1.67,3.07,7.3,7.3,0,0,1-.19,3.52,6.77,6.77,0,0,1-1.92,3.25,6,6,0,0,1-3.16,1.45,9.29,9.29,0,0,1-4-.36,8.41,8.41,0,0,1-3.73-2.05,5.92,5.92,0,0,1-1.67-3.07,7.43,7.43,0,0,1,.19-3.52A6.71,6.71,0,0,1,307.89,212.26Zm-.31,6.46a4.43,4.43,0,0,0,1.47,2.06,7.6,7.6,0,0,0,2.69,1.32,8.65,8.65,0,0,0,3.05.37,4.35,4.35,0,0,0,2.37-.9,4.18,4.18,0,0,0,1.41-2.24,4.55,4.55,0,0,0,0-2.73,4.43,4.43,0,0,0-1.47-2.06,7.6,7.6,0,0,0-2.69-1.32,8.16,8.16,0,0,0-3-.37,4.1,4.1,0,0,0-3.79,3.14A4.63,4.63,0,0,0,307.58,218.72Z"/><path class="cls-2" d="M63.44,206.25a.8.8,0,0,0-.77-.58l-.21,0-10.71,2.89,7.85-8.06a.79.79,0,0,0,0-1.12l-7.84-7.84,10.72,2.68a.68.68,0,0,0,.2,0,.8.8,0,0,0,.77-.58l2.85-10.4,2.93,10.38a.8.8,0,0,0,.77.58l.2,0,10.75-2.68-7.67,7.87a.8.8,0,0,0,0,1.11l7.65,7.85L70.4,205.69a.62.62,0,0,0-.19,0,.8.8,0,0,0-.77.56L66.33,216.6Z"/><path class="cls-9" d="M66.3,186.25l2.16,7.63A1.59,1.59,0,0,0,70,195a1.31,1.31,0,0,0,.39,0l8-2-5.71,5.86a1.61,1.61,0,0,0,0,2.23l5.67,5.82-7.77-2a1.31,1.31,0,0,0-.39,0A1.59,1.59,0,0,0,68.68,206l-2.32,7.72L64.2,206a1.58,1.58,0,0,0-1.53-1.16,2,2,0,0,0-.42,0l-7.9,2.13,5.82-6a1.6,1.6,0,0,0,0-2.24L54.35,193l7.93,2a1.31,1.31,0,0,0,.39.05,1.6,1.6,0,0,0,1.54-1.17l2.09-7.64m0-5.94-3.61,13.16-13.52-3.38L59,200,49.15,210.1l13.52-3.64,3.64,13,3.9-13,13.25,3.38L73.85,200l9.61-9.88L70,193.44l-3.71-13.13Zm17.18,9.78h0Z"/><path class="cls-2" d="M97.66,258.43a.8.8,0,0,0-.77-.58l-.2,0L86,260.76l7.84-8.06a.79.79,0,0,0,0-1.12L86,243.74l10.72,2.68a.62.62,0,0,0,.19,0,.79.79,0,0,0,.77-.58l2.85-10.4,2.94,10.38a.8.8,0,0,0,.77.58.62.62,0,0,0,.19,0l10.75-2.68-7.66,7.87a.8.8,0,0,0,0,1.11l7.64,7.85-10.51-2.68a.68.68,0,0,0-.2,0,.79.79,0,0,0-.76.57l-3.11,10.36Z"/><path class="cls-9" d="M100.53,238.44l2.15,7.62a1.6,1.6,0,0,0,1.54,1.16,1.28,1.28,0,0,0,.38-.05l8-2-5.7,5.86a1.59,1.59,0,0,0,0,2.23l5.66,5.82-7.76-2a1.41,1.41,0,0,0-.4-.05,1.6,1.6,0,0,0-1.53,1.14l-2.32,7.72-2.15-7.7a1.6,1.6,0,0,0-1.54-1.16,2,2,0,0,0-.41.05l-7.9,2.13,5.82-6a1.59,1.59,0,0,0,0-2.24l-5.8-5.81,7.93,2a1.69,1.69,0,0,0,.38,0,1.58,1.58,0,0,0,1.54-1.17l2.1-7.63m0-5.95-3.61,13.16-13.51-3.38,9.87,9.88-9.87,10.13,13.51-3.64,3.64,13,3.9-13L117.69,262l-9.62-9.87,9.62-9.88-13.47,3.36-3.72-13.14Zm17.19,9.78Z"/><path class="cls-2" d="M267.59,212.6a.79.79,0,0,0-.76-.57l-.2,0-10.51,2.68,7.64-7.85a.8.8,0,0,0,0-1.11l-7.66-7.87,10.75,2.68a.62.62,0,0,0,.19,0,.8.8,0,0,0,.77-.58l2.93-10.38,2.85,10.4a.81.81,0,0,0,.77.59.69.69,0,0,0,.2,0l10.72-2.68-7.84,7.84a.8.8,0,0,0,0,1.12l7.85,8.06-10.71-2.88a.76.76,0,0,0-.21,0,.78.78,0,0,0-.76.58L270.7,223Z"/><path class="cls-9" d="M270.73,192.62l2.1,7.63a1.59,1.59,0,0,0,1.53,1.18,1.74,1.74,0,0,0,.39-.05l7.93-2-5.81,5.8a1.6,1.6,0,0,0,0,2.24l5.82,6-7.9-2.12a1.52,1.52,0,0,0-.42-.06,1.58,1.58,0,0,0-1.53,1.17l-2.16,7.69-2.32-7.72a1.58,1.58,0,0,0-1.52-1.14,1.83,1.83,0,0,0-.4.05l-7.77,2,5.67-5.82a1.61,1.61,0,0,0,0-2.23l-5.71-5.86,8,2a1.72,1.72,0,0,0,.39,0,1.6,1.6,0,0,0,1.54-1.16l2.15-7.62m0-6L267,199.81l-13.47-3.36,9.62,9.88-9.62,9.88,13.26-3.38,3.89,13,3.64-13,13.52,3.64L278,206.33l9.88-9.88-13.52,3.38-3.6-13.16Z"/><path class="cls-2" d="M233.36,264.78a.78.78,0,0,0-.76-.57l-.2,0-10.51,2.68,7.64-7.85a.78.78,0,0,0,0-1.11l-7.66-7.87,10.75,2.68a.69.69,0,0,0,.2,0,.8.8,0,0,0,.76-.59l2.94-10.38,2.85,10.4a.81.81,0,0,0,.77.59.63.63,0,0,0,.19,0l10.73-2.68-7.85,7.84a.8.8,0,0,0,0,1.12l7.84,8.06-10.7-2.88-.21,0a.8.8,0,0,0-.77.58l-2.9,10.35Z"/><path class="cls-9" d="M236.51,244.8l2.09,7.63a1.6,1.6,0,0,0,1.54,1.18,1.74,1.74,0,0,0,.39-.05l7.92-2-5.8,5.8a1.59,1.59,0,0,0,0,2.24l5.81,6-7.9-2.12a1.4,1.4,0,0,0-.41-.06,1.6,1.6,0,0,0-1.54,1.17l-2.15,7.69-2.32-7.72a1.6,1.6,0,0,0-1.53-1.14,1.74,1.74,0,0,0-.39,0l-7.77,2,5.67-5.82a1.61,1.61,0,0,0,0-2.23l-5.71-5.85,8,2a1.72,1.72,0,0,0,.39,0,1.6,1.6,0,0,0,1.53-1.16l2.16-7.62m0-6L232.81,252l-13.47-3.36,9.62,9.88-9.62,9.88L232.6,265l3.9,13,3.64-13,13.52,3.64-9.88-10.14,9.88-9.88L240.14,252l-3.61-13.16Z"/><path class="cls-10" d="M133.94,141.65s20.2-10.27,34.34,5.94"/><path class="cls-9" d="M157.1,168c0-7.91,12.43-16.93,18.4-21.26,1.29-.94,2.32-1.68,3-2.25,4.1-3.39,12.72-5.42,23.06-5.42,8,0,8.57.88,13.17,3.18,1.6.8,5.19-.8,3.59-1.59-5.1-2.55-7.79-5.22-16.76-5.22-11.33,0-20.57,2.28-25.37,6.26-.6.49-1.63,1.24-2.82,2.1-6.94,5-19.83,14.39-19.9,24.12-.08,1-.67,9.89,3.33,14.27a7.52,7.52,0,0,0,5.79,2.51,6.49,6.49,0,0,0,4.91-1.92c2.62-2.74,2.38-7.6,2.19-11.51a19.14,19.14,0,0,1,0-4.05c2.11-2.72,6.69-6.75,9.8-6.75a1.81,1.81,0,1,0,0-3.62c-5.2,0-10.9,5.88-12.66,8.14-1,1.32-.93,3.48-.78,6.46s.35,7.21-1.19,8.83a2.89,2.89,0,0,1-2.29.79,3.93,3.93,0,0,1-3.1-1.32c-2.57-2.8-2.6-9.32-2.4-11.59A.86.86,0,0,0,157.1,168Z"/></svg>